<svg xmlns="http://www.w3.org/2000/svg" width="328.834" height="493.971" viewBox="0 0 328.834 493.971"><defs><linearGradient id="a" x1=".553" x2=".052" y1=".579" y2=".408" gradientUnits="objectBoundingBox"><stop offset="0" stop-color="#6000ff"/><stop offset=".651" stop-color="#4900c3"/><stop offset="1" stop-color="#320086"/></linearGradient><linearGradient id="b" x1=".059" x2=".485" y1="-.087" y2=".653" gradientUnits="objectBoundingBox"><stop offset="0" stop-color="#6a0aff"/><stop offset=".047" stop-color="#892aff"/><stop offset=".102" stop-color="#6a0aff"/><stop offset=".902" stop-color="#a94aff"/><stop offset="1" stop-color="#a94aff"/></linearGradient><linearGradient id="c" x1=".036" x2=".984" y1=".003" y2=".971" gradientUnits="objectBoundingBox"><stop offset="0" stop-color="#9335fe"/><stop offset=".031" stop-color="#a954fe"/><stop offset="1" stop-color="#bf73ff"/></linearGradient><linearGradient id="d" x1="1.07" x2=".095" y1=".061" y2="1.049" gradientUnits="objectBoundingBox"><stop offset="0" stop-color="#6a0aff"/><stop offset=".51" stop-color="#8c2dff"/><stop offset=".969" stop-color="#af50ff"/><stop offset="1" stop-color="#af50ff"/></linearGradient><linearGradient id="e" x1=".45" x2=".539" y1=".296" y2=".798" gradientUnits="objectBoundingBox"><stop offset="0" stop-color="#6000ff"/><stop offset="1" stop-color="#3e00a5"/></linearGradient><linearGradient id="f" x1="-.526" x2="1.091" y1="1.069" y2=".859" gradientUnits="objectBoundingBox"><stop offset="0" stop-color="#9838ff"/><stop offset=".322" stop-color="#af50ff"/><stop offset="1" stop-color="#6000ff"/></linearGradient><linearGradient id="g" x1="-.111" x2=".872" y1=".274" y2="1.224" gradientUnits="objectBoundingBox"><stop offset="0" stop-color="#6f0fff"/><stop offset=".702" stop-color="#a94aff"/><stop offset="1" stop-color="#a94aff"/></linearGradient><linearGradient id="h" x1=".015" x2=".986" y1=".008" y2=".949" gradientUnits="objectBoundingBox"><stop offset="0" stop-color="#ae60ff"/><stop offset=".031" stop-color="#b669ff"/><stop offset="1" stop-color="#bf73ff"/></linearGradient></defs><path fill="#6000ff" d="m263.683 186.421 64.822 137.975a3.91 3.91 0 0 1-.8 4.3L157.192 493.447a1.892 1.892 0 0 1-3.2-1.431V340.648l107.451-103.727a3.5 3.5 0 0 0 1.115-2.714l.316-47.8c0-.316.642-.316.8 0Z" data-name="Path 5771"/><path fill="url(#a)" fill-rule="evenodd" d="M569.8 343.811v151.368a1.892 1.892 0 0 0 3.2 1.431l170.508-164.749a3.93 3.93 0 0 0 .8-4.3l-66.577-87.991Z" data-name="Path 5772" transform="translate(-415.795 -3.153)"/><path fill="url(#b)" fill-rule="evenodd" d="M680.483 188.49h-.03a.367.367 0 0 0-.385.385l-.266 47.789a3.94 3.94 0 0 1-.622 2.22l66.833 90.2a4.2 4.2 0 0 0-.316-2.388l-64.82-137.978a.43.43 0 0 0-.385-.217Z" data-name="Path 5773" transform="translate(-417.244 -2.477)"/><path fill="url(#c)" fill-rule="evenodd" d="M746.051 329.81a4.2 4.2 0 0 0-.316-2.388l-3.355-7.164-60.34-76.838Z" data-name="Path 5774" transform="translate(-417.282 -3.204)"/><path fill="#6000ff" d="m110.409 70.593-30.491 86.361a4.04 4.04 0 0 0 .158 3.029l28.418 55.929-78.23 44.3a2.05 2.05 0 0 1-2.714-.8l-16.921-35.221a3.36 3.36 0 0 1 .326-3.661L109.62 70.119a.487.487 0 0 1 .8.484Z" data-name="Path 5775"/><path fill="url(#d)" fill-rule="evenodd" d="M523.876 70.9h-.03a.4.4 0 0 0-.3.128L429.1 215.016l-.109.187 64.859-57.34.207-.582.01-.039L524.34 71.5a.47.47 0 0 0-.464-.6" data-name="Path 5776" transform="translate(-413.931 -.919)"/><path fill="url(#e)" fill-rule="evenodd" d="M424.81 222.607a3.38 3.38 0 0 0-.316 3.661l16.923 35.217a2.053 2.053 0 0 0 2.713.8l78.23-44.3-28.418-55.929a3.95 3.95 0 0 1-.158-3.029Z" data-name="Path 5777" transform="translate(-413.866 -2.087)"/><path fill="url(#f)" fill-rule="evenodd" d="M567.733.779V135.1a3.8 3.8 0 0 1-.8 2.23L414.46 343.983a3.68 3.68 0 0 0 .483 4.934l106.975 103.244a1.828 1.828 0 0 0 3.029-.641l116.23-271.98a4.34 4.34 0 0 0 0-2.871L569.174.444a.68.68 0 0 0-.651-.464.79.79 0 0 0-.789.78Z" data-name="Path 5778" transform="translate(-413.728 .02)"/><path fill="url(#g)" fill-rule="evenodd" d="M570.557 0h-.04a.785.785 0 0 0-.77.78l.053 134.32a4 4 0 0 1-.2 1.115l72.694 38.276L571.188.464a.69.69 0 0 0-.631-.464m-.957 136.212 13.884 7.963z" data-name="Path 5779" transform="translate(-415.793 .02)"/><path fill="url(#h)" fill-rule="evenodd" d="M643.488 180.007v-.02a4.2 4.2 0 0 0-.227-1.391l-.918-2.279L569.6 138.04l13.933 7.96 59.967 34Z" data-name="Path 5780" transform="translate(-415.793 -1.809)"/><path fill="#b46cf3" d="m15.024 214.323-4.016 6.118 68.915-63.5Z" data-name="Path 5781"/></svg>