<svg xmlns="http://www.w3.org/2000/svg" width="138.24" height="138.24" fill="none" viewBox="0 0 138.24 138.24"><path stroke="#13915f" stroke-linecap="round" stroke-width="7.834" d="M117.504 81.094 103.68 57.132m20.738 11.977H96.77m20.734-11.984L103.68 81.087"/><path fill="#13915f" fill-rule="evenodd" d="M14.746 0C6.602 0 0 6.602 0 14.746v108.748c0 8.144 6.602 14.746 14.746 14.746h101.376c12.215 0 22.118-9.903 22.118-22.118V97.461a3.686 3.686 0 0 0-3.686-3.687H93.08c-8.144 0-14.746-6.602-14.746-14.745V59.214c0-8.144 6.602-14.745 14.746-14.745h41.474a3.686 3.686 0 0 0 3.686-3.687V22.118C138.24 9.903 128.337 0 116.122 0Z" clip-rule="evenodd"/></svg>