<svg xmlns="http://www.w3.org/2000/svg" width="200" height="200"><path fill="#fefefe" d="M0 0h200v200H0z"/><path fill="#3f414a" d="M48 38h40l6 11c8.836 11.871 21.053 20.797 36 23 7.983.703 15.99.87 24 1v13q-12.48.07-24.959.104-5.795.014-11.591.047-5.603.032-11.204.039-2.13.005-4.257.021c-10.275.076-19.02-.317-28.302-5.148L70.7 79.535C68.282 78.16 66.096 76.827 64 75v-2l-1.785-.73c-7.102-4.07-10.472-13.576-13.367-20.801C48 48 48 48 48 38"/><path fill="#3f4149" d="M102.414 113.707q2.198.009 4.396.013c3.824.011 7.648.04 11.472.074 3.915.03 7.83.044 11.745.06 7.658.032 15.315.084 22.973.146v12l-5.012.262c-17.104.878-17.104.878-32.988 6.738l-2.898 1.566C101.354 140.912 92.025 149.926 88 162H47c1.448-14.479 4.964-26.147 15.93-36.375 12.397-9.73 24.115-12.092 39.484-11.918"/><path fill="#3f4048" d="M48 90q8.188.18 16.376.372 2.776.065 5.553.125 4.026.09 8.051.187l2.449.05c4.652.116 9.268.384 13.907.766 6.439.518 12.851.716 19.309.816l3.441.063q5.363.096 10.727.183l7.337.131q8.925.16 17.85.307v14l-2.898.07q-13.612.325-27.226.66-6.996.174-13.992.34-6.77.162-13.538.33-2.565.064-5.13.124c-9.343.219-18.645.562-27.965 1.27-4.76.302-9.484.271-14.251.206z"/><path fill="#e9edec" d="m109 57 2 1v7l-7-4z"/><path fill="#eeedf2" d="M84.375 112.75 87 114c-3.505 1.963-7.134 2.959-11 4l-1-2c5.17-4.185 5.17-4.185 9.375-3.25"/><path fill="#efeff0" d="m101 142 2 4-6 3c0-3 0-3 2-5.187z"/><path fill="#4d4f54" d="M59 130h1c.25 2.313.25 2.313 0 5-2 1.813-2 1.813-4 3l-2-1a698 698 0 0 1 2.438-3.5l1.37-1.969z"/></svg>