<svg xmlns="http://www.w3.org/2000/svg" width="400" height="400"><path fill="#01274e" d="M0 0h400v400H0z"/><path fill="#011b35" d="M316 0h84v400c-73.14.15-73.14.15-147.75.31-15.42.05-30.83.09-46.72.14l-27.55.03c-6.15 0-12.3.02-18.46.05-7.09.03-14.18.04-21.27.04q-5.445-.015-10.89.03-5.82.03-11.64 0c-1.14.02-2.28.03-3.46.05-7.64-.08-7.64-.08-10.89-3.1-.46-.84-.91-1.68-1.37-2.55l-1.56-1.44C96.02 390.93 94 387.63 94 384h-2c-2-3-2-3-2-6 3.47-2.31 4.92-2.42 9-2 1.56 1.38 1.56 1.38 3 3 1.66.67 3.33 1.34 5 2l1 2c2.33 1.07 4.62 2.06 7 3 .97.39 1.94.78 2.94 1.19.68.27 1.36.53 2.06.81 1.42-4.26 1.35-8.57 1.52-13.02.2-4.05.71-7.32 2.48-10.98h2l.88-3.44c.37-1.17.74-2.35 1.12-3.56l2-1v2h2v2h2v2h2v6l4 1c.5 3.47.5 3.47 1 7h1v7l6 1 2 8h4v-4h2v-8h2v-4h2c-.05-1.11-.09-2.22-.14-3.36-.04-1.46-.07-2.93-.11-4.39-.03-.73-.07-1.46-.1-2.21-.07-3.64-.04-5.56 2.32-8.42.67-.53 1.34-1.07 2.03-1.62.79-2.14.79-2.14 1-4h3c-.02-.8-.05-1.59-.07-2.41-.1-5.68-.02-10.24 2.07-15.59l-.06-2.44c.06-2.56.06-2.56 1.5-5.56 2.14-4.49 1.97-9.12 2.06-14.01.6-3.6 1.64-4.79 4.5-6.99h2l1 4c.31-.74.61-1.48.93-2.24C197.06 270.4 197.06 270.4 206 257h2c3.15 10.27 5.9 20.46 8 31l.08-2.48c.11-3.71.23-7.43.36-11.14l.12-3.9.12-3.77c.04-1.14.08-2.28.11-3.46.2-3.14.63-6.15 1.21-9.25 18.32 8.46 31.75 32.04 43 48-.31-.77-.31-.77-.62-1.55-2.11-5.23-4.2-10.47-6.29-15.71-.99-2.49-2-4.99-3-7.48-2.99-7.46-5.76-14.94-8.09-22.64-.33-1.06-.33-1.06-.67-2.14-1.04-3.59-1.42-5.92-.33-9.48 19.43 10.7 19.43 10.7 28 16-.5-.48-.99-.97-1.5-1.47-4.07-4.01-7.97-8.1-11.69-12.44-2.71-3.13-5.51-6.16-8.31-9.21C247 234 247 234 247 232c18.76-.6 36.52.82 55.02 3.63 2.7.34 5.26.44 7.98.37-.9-.32-1.8-.63-2.73-.96-18.1-6.51-35.29-14.28-51.27-25.04 1-2 1-2 3.59-2.87 1.13-.28 2.25-.57 3.41-.86 1.64-.42 1.64-.42 3.32-.84 1.4-.35 2.8-.7 4.24-1.05 4.44-1.12 8.87-2.23 13.44-3.38l-32-3c3.58-5.37 6.81-10.19 10.88-15.06.78-.94 1.56-1.88 2.36-2.85.58-.69 1.16-1.38 1.76-2.09l-7-1 1-6-4-1v-1c18.52-.85 37.03-1.28 55.56-1.56 2.68-.05 5.36-.09 8.04-.13 6.47-.11 12.93-.21 19.4-.31-.69-.32-1.38-.63-2.1-.96-3.16-1.44-6.32-2.88-9.48-4.33-1.64-.74-1.64-.74-3.3-1.5-5.32-2.44-10.61-4.9-15.81-7.59-3.7-1.89-7.41-3.47-11.31-4.92-6.87-2.61-13.56-5.55-20.25-8.58-10.18-4.56-20.4-8.97-30.75-13.12v-2c8.75-1.55 16.45-1.5 25 1 2.41.41 4.83.76 7.25 1.06l2.05.26c4.72.56 9.4.81 14.15.97 12.2.41 12.2.41 18.09 3.72 6.02 2.42 13.05 2.43 19.46 2.99v2l9-1c.24-4.63-.46-8.71-1.43-13.2-.83-4.05-1.41-8.14-2.01-12.23-.45-2.79-.45-2.79-2.56-5.57-.14-2.77-.19-5.43-.12-8.19 0-.75.01-1.5.02-2.27.03-1.85.06-3.69.1-5.54h-2q-.765-3.06-1.5-6.12c-.28-1.14-.56-2.28-.84-3.45-.62-3.24-.78-6.14-.66-9.43l-3-1-.08-2.71c-.36-7.65-1.03-14.55-4.92-21.29l-2-1c-1.39-3.73-1.34-7.81-1.56-11.75-.05-.7-.09-1.39-.13-2.11-.11-1.72-.21-3.43-.31-5.14l-3-1 3-1c-.34-2.97-.34-2.97-1-6-.99-.5-.99-.5-2-1z"/><path fill="#022d56" d="M172.875 96.688c1.57.54 3.15 1.07 4.72 1.61 8.89 3.03 17.66 6.29 26.4 9.7 2.52.95 5.04 1.88 7.57 2.81 29.09 10.89 57.52 23.49 85.9 36.08 1.95.85 3.9 1.69 5.85 2.53 6.12 2.62 12.19 5.37 18.26 8.11 1.54.69 3.09 1.39 4.63 2.08 2.25 1 4.49 2.01 6.72 3.02.7.31 1.39.62 2.11.94 4.85 2.2 4.85 2.2 5.96 4.43-1.02.02-1.02.02-2.07.03-6.59.1-13.17.21-19.76.31-3.38.06-6.76.11-10.15.16-17.02.26-34.01.68-51.02 1.5 1 .33 1.99.66 3 1 .76 2 .76 2 1 4-.32.33-.66.66-1 1 2.32.33 4.63.66 7 1-5 6.67-10 13.34-15 20 11.33 1.26 22.63 2.36 34 3-3.16 2.11-5.52 2.8-9.19 3.73l-3.67.94c-1.26.31-2.52.63-3.82.96-1.91.48-1.91.48-3.86.98-3.15.8-6.3 1.6-9.46 2.39 9.65 7.99 20.83 12.92 32.26 17.75l3.96 1.71c6.21 2.66 12.43 5.25 18.78 7.54v1c-4.6.08-8.96-.16-13.51-.84-1.24-.17-2.48-.35-3.76-.53-.65-.09-1.29-.18-1.96-.28-15.26-2.16-30.34-3.13-45.77-3.35 1.12 1.44 2.23 2.87 3.34 4.3.62.8 1.24 1.59 1.88 2.42 3.68 4.71 7.5 9.1 11.78 13.28 1.28 1.27 2.55 2.54 3.82 3.81.6.61 1.21 1.21 1.83 1.84.45.44.89.89 1.35 1.35-3.59 0-4.9-.92-7.96-2.77-.96-.58-1.93-1.16-2.92-1.75-1.01-.61-2.02-1.22-3.05-1.85-1.99-1.2-3.98-2.39-5.97-3.59-.88-.53-1.76-1.07-2.67-1.62a90 90 0 0 0-6.43-3.42c2.82 14.32 7.93 27.68 13.44 41.13 2.41 5.91 4.63 11.8 6.56 17.87-3.05-2.91-5.56-5.97-8.06-9.37-.8-1.08-1.6-2.15-2.4-3.23l-1.26-1.69c-6.18-8.27-12.58-16.24-19.59-23.83l-1.74-1.9c-.55-.6-1.11-1.19-1.68-1.8-.49-.52-.97-1.03-1.47-1.57-2.38-2.14-5.13-3.83-7.8-5.61-.33 12.21-.65 24.42-1 37-1.86-2.8-2.47-4.35-3.21-7.53-.21-.9-.42-1.79-.64-2.71-.21-.93-.43-1.86-.65-2.82-.21-.9-.42-1.81-.64-2.74-1.41-6.04-2.67-12.11-3.86-18.2h-2c-.27.73-.55 1.46-.84 2.22-1.06 2.56-2.25 4.92-3.59 7.35-8.01 14.78-14.49 29.77-20.57 45.43h-1v-7c-2.47.99-2.47.99-5 2-.03.98-.07 1.96-.11 2.97-.33 6.67-.73 12.75-3.19 19.03-1.13 3.26-1.33 6.58-1.7 10-.33.33-.65.66-1 1-.23 2.02-.41 4.04-.56 6.07-.08 1.1-.17 2.2-.25 3.34-.06.86-.12 1.71-.19 2.59h-3c-.08.95-.16 1.9-.24 2.88-.38 1.54-.38 1.54-.76 3.12-1.31.66-2.63 1.32-4 2v16h-2v4h-2v8h-2v4h-4c-2.15-3.23-2.2-4.28-2-8-1.97-.33-3.96-.66-6-1-.14-.91-.28-1.81-.43-2.75-.43-2.47-.92-4.83-1.57-7.25-.18-1.08-.18-1.08-.37-2.19-.21-.59-.41-1.19-.63-1.81-.99-.33-1.97-.66-3-1v-6h-2v-2h-2v-2c-.99-.33-1.97-.66-3-1l-3 7h-2c-1.19 5.05-1.32 10.13-1.51 15.3-.19 3.71-.38 5.54-2.49 8.7-4.85-.6-8.74-2.73-13-5v-2c-.94-.29-1.89-.57-2.87-.87-3.13-1.13-3.13-1.13-5.13-3.13-3.39-.21-5.75-.08-9 1l2 6h2c.68 1.29 1.34 2.58 2 3.88.38.72.75 1.44 1.13 2.18.87 1.94.87 1.94.87 3.94.62.25 1.24.5 1.88.75 2.12 1.25 2.12 1.25 4.12 5.25h-104v-207h2c.8 2.82 1.15 5.38 1.22 8.3.02.82.05 1.63.08 2.47.05 1.68.1 3.37.13 5.06.21 5.42 1.12 9.32 3.57 14.17l11 1c.82 1.73 1.64 3.46 2.44 5.19.45.96.91 1.93 1.37 2.92 1.1 2.66 1.74 5.06 2.19 7.89h2v-11h-2v-6h-2c-.1-.64-.2-1.28-.31-1.93-.22-.69-.45-1.37-.69-2.07-1.48-.49-1.48-.49-3-1-2.53-3.77-2.36-7.64-2.55-12.05-.33-3.1-.33-3.1-1.97-6.28-1.73-4.3-1.83-7.55-1.66-12.1l.04-2.22c.03-1.78.09-3.57.14-5.35h-2v-4c4.63-1.17 9.08-1.11 13.82-1.06 1.18.01 1.18.01 2.39.01 1.93.02 3.86.03 5.79.05v-7l2 1c.67 2.34 1.34 4.67 2 7l2 1c1.71 4.84 2.31 9.23 2.57 14.38.31 5.57.75 11.08 1.43 16.62h3c2.26 13.13 3.41 25.98 3.54 39.32.12 6.87.91 12.29 3.46 18.68h4c.21-.64.41-1.27.63-1.93.27-.83.53-1.65.81-2.5.27-.83.54-1.65.81-2.5.75-2.07.75-2.07 1.75-3.07 1.98-9.2 2.89-18.66 4-28 1.99.33 3.96.66 6 1 .5 7.92.5 7.92 1 16 .99.33 1.99.66 3 1v5c.99.33 1.99.66 3 1 .69 2.07.69 2.07 1 4h2c.29 1.24.58 2.48.88 3.75.58 2.37 1.15 4.31 2.25 6.5.87 1.75.87 1.75.87 5.75h2c.78 1.52.78 1.52 1.57 3.07 2.1 3.71 4.74 6.36 7.82 9.29 1.97 2 3.33 4.15 4.61 6.64l2-3 1 1c.1-1.24.2-2.48.3-3.76 4.23-51.93 10.66-104.11 20.7-155.24.21-1.04.21-1.04.42-2.1.88-4.52 1.81-9.02 2.77-13.52.23-1.09.45-2.17.69-3.29 1.58-7.08 3.39-12.69 9.69-16.9.58-.4 1.16-.8 1.75-1.21 10.4-6.05 23.35.13 33.56 3.71"/><path fill="#fdfefd" d="M172.875 96.688c1.57.54 3.15 1.07 4.72 1.61 8.89 3.03 17.66 6.29 26.4 9.7 2.52.95 5.04 1.88 7.57 2.81 29.09 10.89 57.52 23.49 85.9 36.08 1.95.85 3.9 1.69 5.85 2.53 6.12 2.62 12.19 5.37 18.26 8.11 1.54.69 3.09 1.39 4.63 2.08 2.25 1 4.49 2.01 6.72 3.02.7.31 1.39.62 2.11.94 4.85 2.2 4.85 2.2 5.96 4.43-37.39.9-74.77 1.09-112.18 1.07-1.14-.01-2.27-.01-3.44-.01-14.12-.01-28.25-.03-42.38-.06-.3.77-.6 1.55-.91 2.34-1.15 2.81-2.52 5.33-4.03 7.96-.6 1.03-1.19 2.06-1.8 3.11-.64 1.11-1.28 2.21-1.94 3.34-.68 1.17-1.35 2.33-2.03 3.5-5.72 9.85-11.57 19.63-17.46 29.39-4.04 6.7-8.03 13.44-12.01 20.17-5.05 8.53-10.11 17.04-15.22 25.52-2.94 4.9-5.86 9.81-8.75 14.73-.73 1.23-1.45 2.47-2.18 3.7-1.07 1.82-2.15 3.65-3.21 5.47-.99 1.7-1.99 3.39-2.99 5.08-.57.98-1.14 1.96-1.73 2.96-1.75 2.75-3.66 5.23-5.74 7.73-.36-12.77.72-25.3 2-38 .12-1.18.24-2.37.36-3.59 4.5-44.3 10.06-88.7 18.64-132.41q.21-1.035.42-2.1c.88-4.52 1.81-9.02 2.77-13.52.34-1.63.34-1.63.69-3.29 1.58-7.08 3.39-12.69 9.69-16.9.58-.4 1.16-.8 1.75-1.21 10.4-6.05 23.35.13 33.56 3.71"/><path fill="#023f72" d="M65 230c2.47.99 2.47.99 5 2 .5 6.44.5 6.44 1 13l3 1v5c1.48.5 1.48.5 3 1 .69 2.06.69 2.06 1 4h2c.29 1.24.58 2.48.88 3.75.58 2.37 1.15 4.31 2.24 6.5C84 268 84 268 84 272h2c.52 1.01 1.03 2.02 1.56 3.06 2.1 3.72 4.75 6.37 7.82 9.3 1.97 2 3.34 4.15 4.62 6.64l2-3 2 14c4.27-7.09 8.53-14.18 12.7-21.33 5.26-9 10.73-17.86 16.3-26.67l4 2c.2 6.71.31 12.65-2 19h-2c-.68 3.33-1.34 6.66-2 10-.29 1.45-.29 1.45-.58 2.94-.18.95-.36 1.89-.54 2.87-.17.88-.34 1.75-.51 2.65-.37 2.55-.43 4.97-.37 7.54h3c2.5 3.74 2.26 6.67 2.19 11v2.2c-.03 3.18-.18 5.76-1.19 8.8-3.47.5-3.47.5-7 1v-2h-2v-2h-4v-2c-1.48-.5-1.48-.5-3-1-1.69-1.44-1.69-1.44-3-3v-2h-2c.01.9.02 1.81.04 2.74 0 1.18.01 2.36.02 3.57.01 1.17.03 2.35.04 3.55C112 325 112 325 111 328c-.09 1.92-.13 3.85-.14 5.77l-.06 3.44c-.03 2.39-.05 4.78-.05 7.17-.21 9.75-.21 9.75-3.07 13.4-3.27 2.71-5.51 2.9-9.68 3.22l-2 2c-2.73-.03-5.3-.56-8-1v-2c-.83-.08-1.65-.16-2.5-.25-4.29-.92-7.66-2.69-11.5-4.75-4.58-2.39-9.16-4.22-14-6-.99-.5-.99-.5-2-1v-2h-2v-2c-.83-.08-1.65-.17-2.5-.25-4.27-.91-7.69-2.67-11.5-4.75v-2c-.72-.23-1.44-.45-2.19-.69-3.43-1.6-5.38-3.41-7.81-6.31-.1-.87-.21-1.73-.31-2.62-.23-.79-.46-1.57-.69-2.38-1.95-1.03-3.88-1.69-5.99-2.32C23 322 23 322 20 320v-3h-2c-1.89-4.29-3.58-8.53-5-13h-2c-2.77-3.58-3.61-7.11-4.43-11.46-.54-2.4-1.28-4.59-2.11-6.9-2.08-6.83-1.86-13.62-1.77-20.7-.01-1.31-.01-2.62-.01-3.97.09-16.62.09-16.62 4.32-22.97h2c.06.75.12 1.5.18 2.27.09.98.17 1.97.26 2.98.08.97.16 1.95.24 2.95.25 2.71.25 2.71.85 4.92.74 2.95.53 5.86.47 8.88h2c2.62 6.51 3.4 12.08 3.19 19.06-.02.87-.03 1.73-.04 2.63-.04 2.1-.09 4.21-.15 6.31h2c2.04 2.91 3 4.4 3 8 1.48.5 1.48.5 3 1 .22 5.44.1 9.87-2 15h8l-.06-3.38C30 305 30 305 31 303h2l2-7h3v-8c2.47-.5 2.47-.5 5-1v-9c.65-.1 1.3-.2 1.98-.3 5.71-.97 9.4-2.23 14.02-5.7h2a277 277 0 0 0 2.66-29.17c.17-4.36.5-8.54 1.34-12.83"/><path fill="#fafcfb" d="M226 177h42l-15 20c11.33 1.26 22.62 2.35 34 3-3.17 2.11-5.53 2.8-9.2 3.73l-3.66.93c-1.26.32-2.53.64-3.83.96-1.27.33-2.55.65-3.86.99-3.15.8-6.3 1.6-9.45 2.39 9.65 7.98 20.82 12.91 32.25 17.75 1.32.57 2.65 1.14 3.97 1.71 6.21 2.66 12.42 5.25 18.78 7.54v1c-4.61.08-8.96-.17-13.52-.84-1.23-.18-2.47-.35-3.75-.53-.65-.09-1.3-.19-1.97-.28-15.26-2.16-30.34-3.13-45.76-3.35 1.11 1.43 2.22 2.86 3.34 4.3.62.79 1.23 1.59 1.87 2.41 3.68 4.71 7.51 9.11 11.79 13.29l3.81 3.81 1.83 1.83L271 259c-3.6 0-4.91-.93-7.96-2.77-.97-.58-1.93-1.16-2.93-1.75-1-.61-2.01-1.23-3.05-1.86-1.99-1.19-3.97-2.39-5.96-3.58-.88-.54-1.77-1.07-2.67-1.62A92 92 0 0 0 242 244c2.81 14.31 7.92 27.68 13.43 41.13 2.42 5.9 4.63 11.79 6.57 17.87-3.06-2.91-5.57-5.97-8.06-9.38-.8-1.07-1.6-2.14-2.4-3.22-.42-.56-.83-1.11-1.26-1.69-6.19-8.27-12.58-16.24-19.59-23.83-.58-.63-1.15-1.26-1.74-1.91-.56-.59-1.12-1.18-1.69-1.79-.48-.52-.97-1.04-1.47-1.57-2.38-2.14-5.13-3.83-7.79-5.61l-1 37c-1.87-2.8-2.48-4.35-3.22-7.54-.21-.89-.42-1.78-.64-2.7-.21-.93-.42-1.86-.64-2.82-.21-.91-.43-1.81-.64-2.74-1.41-6.05-2.68-12.11-3.86-18.2h-2c-.28.73-.56 1.46-.85 2.21-1.06 2.57-2.24 4.93-3.58 7.36-8.01 14.78-14.5 29.77-20.57 45.43h-1c.38-7.76.83-15.44 2-23.12 1.52-10.03 2.08-20 2.12-30.13.01-.74.01-1.48.02-2.24.06-3.88.06-3.88-1.14-7.51-.63.57-1.26 1.14-1.91 1.72-4.06 3.67-8.13 7.33-12.28 10.9-3.78 3.29-7.32 6.79-10.81 10.38l-1-2c1.05-2.17 1.05-2.17 2.68-4.83.87-1.45.87-1.45 1.76-2.92.61-1.01 1.23-2.02 1.87-3.06 1.21-1.99 2.41-3.97 3.62-5.96.81-1.32.81-1.32 1.63-2.67 1.7-2.89 1.7-2.89 3.44-7.56-10.89.5-10.89.5-22 1 1.02-4.06 2.63-7.17 4.71-10.73l1.12-1.94 2.34-4.02c1.21-2.06 2.39-4.13 3.57-6.2.76-1.3 1.52-2.6 2.28-3.91.36-.62.71-1.24 1.07-1.88 1.02-1.72 1.02-1.72 2.91-4.32h3c.29.82.29.82.59 1.65 2.56 6.45 6.14 11.77 11.41 16.35h3c-.16-.54-.32-1.08-.48-1.64-1.63-7.45-1.17-14.67 2.48-21.36l-10-10c1.63-4.07 3.35-7.5 5.56-11.25.62-1.06 1.24-2.11 1.88-3.2C187 179 187 179 188 178c1.63-.09 3.27-.11 4.91-.1.89 0 1.78.01 2.7.01 1.71.01 1.71.01 3.45.03L210 178l1 22c-4-1.33-4.84-3.5-7-7-.37 6.58.87 11.79 3 18l1 3c.58-.21 1.16-.41 1.75-.62 2.93-.49 3.76.01 6.25 1.62 2.05 1.62 4.02 3.29 6 5 .04-1.05.07-2.1.11-3.18.07-1.37.14-2.75.2-4.13.03-.69.05-1.38.07-2.09.23-4.37.39-5.37 3.62-8.6l7 8c-1.9-15.11-1.9-15.11-5-30h-2z"/><path fill="#01637e" d="m72 274 9 1c.34 1.18.34 1.18.69 2.38 1.05 2.82 1.05 2.82 3.69 3.56 3.63 1.47 4.95 3.66 6.62 7.06 1.32 3.23 2.56 6.48 3.77 9.75 1.28 3.39 2.71 6.67 4.24 9.96.33.75.65 1.51.99 2.29.53 1.15 1.06 2.3 1.6 3.49 2.05 5.52 1.76 11.07 1.65 16.89-.01 1.09-.01 2.18-.02 3.3-.07 8.01-.07 8.01-1.23 10.32h-3l.06 3.44C100 351 100 351 99 352q-3 .06-6 0l-2 5c-1.88-.19-1.88-.19-4-1-1.25-2.56-1.25-2.56-2-5-.95.1-1.9.21-2.88.31-4.52.03-7.73-1.96-11.63-4.08-2.33-1.15-4.27-1.74-6.8-2.23-4.28-1.16-5.85-2.67-8.69-6-.56-.47-1.11-.95-1.69-1.44-2.89-3.44-3.31-7.2-3.31-11.56-1.48.5-1.48.5-3 1-2-3-2-3-2-7h-2c-.11-2.56-.19-5.12-.25-7.69-.03-.72-.07-1.44-.1-2.18-.09-5.08.75-7.32 4.35-11.13l1-3h6v-2h2c.25-.58.49-1.15.75-1.75 1.43-2.58 3.03-4.31 5.25-6.25h2l-1-8c3.38 0 5.83.87 9 2z"/><path fill="#fafcfc" d="M241.816 182.902c1.58.01 3.16.02 4.75.04a1186 1186 0 0 1 8.43.06c.94 4.43 1.11 7.57 0 12l-2 2c11.33 1.25 22.63 2.35 34 3-3.16 2.11-5.52 2.79-9.2 3.72-1.81.47-1.81.47-3.66.94-1.26.32-2.52.64-3.82.96-1.28.33-2.55.65-3.87.99-3.14.8-6.29 1.6-9.45 2.39 9.65 7.98 20.83 12.91 32.25 17.75 1.33.57 2.65 1.14 3.97 1.7 6.21 2.67 12.43 5.26 18.78 7.55v1c-4.6.08-8.96-.17-13.51-.84-1.24-.18-2.48-.35-3.76-.53-.65-.1-1.3-.19-1.97-.29-15.25-2.15-30.34-3.12-45.76-3.34v5c-3.2.09-5.92-.09-9-1v2h2l1 3-5-1v-5h-2l-1.46-5.96c-.45-1.7-.98-3.38-1.54-5.04-.13-3.01-.04-5.99 0-9l9 1c-1.08-3.25-1.08-3.25-3-6-2.81-2.82-2.41-5.66-2.56-9.44-.21-5.36-.21-5.36-1.44-10.56h5c-.18-.97-.37-1.94-.56-2.94-.14-1.01-.29-2.02-.44-3.06 1-1 1-1 4.82-1.1"/><path fill="#083c6d" d="M190.133 177.886c.92.01 1.83.01 2.78.02h2.7c1.71.02 1.71.02 3.45.03l10.94.06 1 22c-4-1.33-4.84-3.49-7-7-.37 6.59.87 11.79 3 18l1 3c.57-.2 1.15-.41 1.75-.62 2.93-.49 3.76.01 6.25 1.62 2.05 1.62 4.02 3.3 6 5 .05-1.06.09-2.12.15-3.21.07-1.39.15-2.77.22-4.16l.1-2.12c.3-5.28.3-5.28 2.53-7.51-.03.92-.03.92-.05 1.86-.06 2.84-.1 5.68-.14 8.52-.03.96-.05 1.93-.08 2.92-.08 8.6 1.86 15.85 5.27 23.7-11.39.64-19.1-3.12-28-10-1.34-1-2.67-2-4-3 1.04 3.89 2.12 7.44 4 11-6.12-1.05-10.76-2.65-16-6v-3c-.24-.9-.24-.9-.49-1.82-1.74-7.33-1.1-14.6 2.49-21.18l-10-10c1.63-4.07 3.35-7.49 5.56-11.25.62-1.05 1.24-2.11 1.88-3.2 2.16-3.53 2.16-3.53 4.69-3.66"/><path fill="#f2f6f7" d="M173.25 96.813c1.62.55 3.25 1.11 4.88 1.66 6.73 2.3 13.36 4.66 19.87 7.53-3.72 1.38-5.43.5-9-1-2.98-.75-5.99-1.39-9-2v2l-5 1c.21.84.41 1.69.63 2.56.44 4.04-.18 6.66-1.63 10.44-3.55 2.36-4.82 2.32-9 2-6.53-1.31-6.53-1.31-8.44-4.13-.18-.62-.37-1.23-.56-1.87h-2c-1.13-2.25-1.13-2.25-2-5 .87-2.31.87-2.31 2-4h2v-2c4.76-1.2 8.68-.66 13.48.04 2.58.22 2.58.22 4.36-1.52.38-.5.76-1 1.16-1.52-1.05-.08-2.1-.17-3.19-.25-4.19-.83-5.62-2.05-8.81-4.75-5.38-2.57-11.16-2.81-17-2-4.46 1.74-9.06 4.13-12 8-1.02 3.41-1.02 3.41-1.69 7.19-.25 1.27-.5 2.54-.76 3.85-.18.98-.36 1.95-.55 2.96h2l1 2 3-1c1.67-.04 3.33-.05 5 0l-1-2c3.01-.94 3.87-1.05 7 0l1 6h3l-2 13h-2v2c-3.4.35-6.61.53-10 0-4-4.38-4-4.38-4-8h-4v-3c-2.28 4.17-3.54 7.78-4.28 12.47-.2 1.23-.41 2.46-.61 3.73-.3 1.91-.3 1.91-.61 3.86-3.42 21.37-3.42 21.37-5.5 27.94-.99.49-.99.49-2 1 1.21-11.99 3.1-23.75 5.4-35.57q.81-4.14 1.59-8.28c5.87-30.66 5.87-30.66 15.33-37.17 10.49-6.11 23.63.22 33.93 3.83"/><path fill="#f5f9fa" d="M116 176h1c.39 10.48-.68 20.38-2.14 30.73-4.4 27.19-4.4 27.19-1.86 54.27l3 2c1.19 3.12 1.19 3.12 2 6 1.48-.5 1.48-.5 3-1 .34-1.62.67-3.25 1-4.88.19-.9.37-1.8.56-2.74.5-2.3.5-2.3.44-4.38h6l2-4h2c.1-1.18.21-2.35.31-3.56.38-3.14.96-5.07 2.25-8.06 1.47-3.46 1.71-5.68 1.44-9.38 3.42 0 5.95.47 9 2-14.58 25.48-14.58 25.48-21.7 36.98-2.89 4.68-5.71 9.39-8.5 14.13-.36.61-.73 1.23-1.11 1.87-1.83 3.11-3.65 6.22-5.47 9.34-.66 1.12-1.33 2.25-2.01 3.41-.59 1.01-1.19 2.03-1.8 3.08-.7 1.08-.7 1.08-1.41 2.19h-1c-.36-12.77.71-25.3 2-38 .12-1.22.25-2.43.37-3.69 2.98-28.84 6.83-57.57 10.63-86.31"/><path fill="#fbfcfb" d="M190.295 177.61c2.98-.1 5.91-.04 8.89.08 3.57.1 7.14.2 10.81.31l1 22c-4-1.33-4.83-3.49-7-7-.44 7.98 1.27 14.92 5 22-12.19-.79-20.95-8.46-29-17-1.54-2-1.54-2-2-4 1.24-2.62 1.24-2.62 3.19-5.44.64-.92 1.27-1.85 1.92-2.81.63-.9 1.25-1.81 1.89-2.75.35-.93.69-1.87 1.04-2.83 1.96-2.17 1.96-2.17 4.26-2.56"/><path fill="#043c5e" d="M183 248c2.41 3.62 2.3 6.25 2.25 10.44 0 .73-.01 1.46-.01 2.22-.14 9.16-1.19 18.25-2.24 27.34h-2c-.12.74-.25 1.49-.38 2.25-.57 2.55-1.36 4.48-2.62 6.75h-1v-5h-7c-.1-.64-.21-1.28-.31-1.94-.23-.68-.46-1.36-.69-2.06l-3-1c-2.4-4.3-3.31-9.17-4-14-.83-2.17-.83-2.17-3-3 7.31-7.54 14.75-14.48 23-21z"/><path fill="#074769" d="M206 257h2c3.15 10.28 5.89 20.45 8 31l1-28 1 4 3 1c1.52 3.03 1.15 6.18 1.12 9.5v2.18C222 290 222 290 220 296h-2c.02.65.05 1.3.07 1.98.11 5.11-.05 9.22-2.07 14.02-3.16-1.37-3.99-1.99-6-5v-3h-2c-.01-.9-.03-1.81-.04-2.74l-.15-3.57-.1-3.55c-.39-3.31-.39-3.31-3.15-4.92-.84-.4-1.69-.81-2.56-1.22-2.57-3.1-3.15-5.27-3.06-9.19L199 275l-2-2z"/><path fill="#e4e8ea" d="M226 177h42l-6 8c-1.67 2.33-3.34 4.66-5 7-.5-.99-.5-.99-1-2h-15v-1l14-1v-4h-17v6h-5c.99 1.49.99 1.49 2 3 .28 3.22.41 6.4.48 9.64.06 2.23.06 2.23.52 5.36l3 2 1-3v9c-7.43.14-7.43.14-11-1v-2h-2l1 22c-6.25-9.38-4.74-22.33-3-33 .76.78 1.53 1.57 2.31 2.38 2.6 2.69 2.6 2.69 5.69 4.62-1.98-14.6-1.98-14.6-5-29h-2z"/><path fill="#e3e9ed" d="M273 137c6.24 1.95 12.18 4.29 18.12 7 1.53.69 3.05 1.38 4.58 2.06l2 .91c2.45 1.1 4.93 2.16 7.41 3.21 5.51 2.38 10.98 4.87 16.46 7.35 1.55.69 3.09 1.38 4.64 2.08 2.24 1 4.48 2.01 6.72 3.02q1.035.465 2.1.93c4.86 2.21 4.86 2.21 5.97 4.44-39.34.81-78.65 1.14-118 1v-1c12.28-.84 24.51-1.2 36.82-1.32l5.51-.06 14.31-.15c4.9-.05 9.79-.11 14.69-.16 9.55-.11 19.11-.21 28.67-.31l-2-1 1-5h-3v-2l-6 2c-.23-.64-.45-1.28-.69-1.94-.43-.68-.86-1.36-1.31-2.06-1.66-.35-3.33-.68-5-1l-1.88-2c-2.95-2.78-5.12-2.8-9.12-3-2.34.26-4.68.57-7 1v-3q-1.47-1.53-3-3v-2c-.92-.31-.92-.31-1.86-.62-3.38-1.13-6.76-2.25-10.14-3.38z"/><path fill="#f0f6f7" d="m130 113 1 3h2l1 2 3-1c1.67-.04 3.33-.05 5 0l-1-2c3.01-.93 3.87-1.04 7 0l1 6h3l-2 13h-2v2c-3.4.35-6.61.53-10 0-4-4.38-4-4.38-4-8h-4v-3l-2 2c.67-4.67 1.33-9.33 2-14"/><path fill="#b1bdc8" d="M116 176h1c.33 10.13-.53 19.74-1.91 29.75-2.8 20.54-4.82 41.12-6.68 61.76-.36 3.93-.73 7.85-1.1 11.78-.19 1.96-.37 3.93-.56 5.9-.08.83-.16 1.66-.24 2.51-.32 3.46-.5 6.68-.37 10.16-.14 3.14-.14 3.14-1.64 5.08-.5.35-.99.7-1.5 1.06-.36-12.77.71-25.3 2-38 .12-1.22.25-2.43.37-3.69 2.98-28.84 6.83-57.57 10.63-86.31"/><path fill="#f3f7f8" d="M190.295 177.61c2.98-.1 5.91-.04 8.89.08 3.57.1 7.14.2 10.81.31l1 22c-3.27-1.09-3.78-1.66-5.68-4.37-.44-.61-.88-1.22-1.33-1.84-.99-1.79-.99-1.79-.99-4.79l4-2-1-3h-2c-.12.62-.24 1.24-.37 1.88-.63 2.12-.63 2.12-2.63 4.12l-1-6h-8c-.63.17-1.27.33-1.93.5-2.07.5-2.07.5-4.07.5l-1 6h-2c-.12.6-.24 1.2-.37 1.81-.63 2.19-.63 2.19-2.63 5.19-1.19-1.66-1.19-1.66-2-4 1.24-2.62 1.24-2.62 3.19-5.44.64-.92 1.27-1.85 1.92-2.81.63-.9 1.25-1.81 1.89-2.75.35-.93.69-1.87 1.04-2.83 1.96-2.17 1.96-2.17 4.26-2.56"/><path fill="#0a335c" d="m241 243 12 6-2 5c.36 2.6.36 2.6 1.31 5.12.29.85.57 1.7.87 2.58.27.76.54 1.52.82 2.3l1 3h2v13l-4 2c-3.66-9.02-7.18-18.03-9.94-27.38-.21-.7-.42-1.41-.64-2.14-.95-3.33-1.42-5.97-1.42-9.48"/><path fill="#b4bdc7" d="M167 95c-2.8.85-3.72 1.1-6.56.06-5.68-1.75-11.42-2.24-17.05-.04-6.33 3.39-6.33 3.39-10.23 9.15-1.69 6.64-3.11 13.3-4.41 20.02-.7 3.55-1.46 7.09-2.25 10.62-1.17 5.4-2.12 10.8-3 16.25-2.61 16.09-2.61 16.09-4.5 21.94-.99.5-.99.5-2 1 1.21-11.98 3.1-23.75 5.4-35.57q.81-4.14 1.59-8.28c5.87-30.66 5.87-30.66 15.33-37.17 8.67-5.05 19.12-1.33 27.68 2.02"/><path fill="#e9edee" d="M184 250h2c1.12 3.37 1.14 5.98 1.18 9.53.02 1.29.04 2.57.07 3.9.03 2.04.06 4.08.08 6.12.01 1.97.05 3.95.1 5.92.01 1.18.02 2.36.04 3.57.28 3.48.28 3.48 4.53 5.96-5.44 13.37-5.44 13.37-11 27h-1c.38-7.76.83-15.44 2-23.12 1.96-12.96 2.13-25.81 2-38.88"/><path fill="#ebf3f4" d="M167 241c6.75-.12 6.75-.12 9 1-.09 1.18-.09 1.18-.19 2.38.06.86.13 1.73.19 2.62l3 2 2-1c-.33 2.94-.92 3.92-3.12 5.97-.91.69-1.82 1.38-2.76 2.09-6.2 4.88-11.64 10.27-17.12 15.94l-1-2c1.05-2.17 1.05-2.17 2.68-4.83a569 569 0 0 1 3.63-5.98c1.21-1.99 2.41-3.97 3.62-5.96.54-.88 1.08-1.77 1.63-2.67 1.39-2.47 2.46-4.91 3.44-7.56h-6z"/><path fill="#f6f9f9" d="M252 198c11.68.56 23.34 1.17 35 2-2.99 1.99-4.99 2.65-8.44 3.51-1.06.26-2.12.53-3.21.8-1.1.27-2.21.54-3.35.81-1.11.28-2.21.56-3.35.84C260.41 208 260.41 208 257 208l-1-6h-4z"/><path fill="#ecf7f7" d="m212 256 4 21h1v14c-1.87-2.8-2.48-4.35-3.22-7.54-.21-.89-.42-1.78-.64-2.7-.31-1.4-.31-1.4-.64-2.82-.32-1.36-.32-1.36-.64-2.74-1.41-6.05-2.68-12.11-3.86-18.2h-2c-.23.64-.47 1.29-.71 1.95-1.73 4.09-3.82 7.95-5.91 11.86-.43.79-.85 1.58-1.28 2.39-1.03 1.94-2.06 3.87-3.1 5.8h-1c-1-6.62-1-6.62-1-10l2 1 2-5h2l1-5h2v-3c3-1 3-1 10-1"/><path fill="#0f2e51" d="M143 118c2.84 2.02 4.72 3.51 5.38 7.04.06 2.15.06 2.15-.38 5.96-2 2-2 2-4.88 2.38-3.12-.38-3.12-.38-5.43-1.88-2.45-3.63-2.62-6.11-2.69-10.5 1.91-3.4 4.3-3.7 8-3"/><path fill="#0b284a" d="M165.5 104c3.14 1.26 4.56 2.2 6.5 5 .46 2.85.28 5.07 0 8-2 2-2 2-4.88 2.38-3.12-.38-3.12-.38-5.43-1.94-2.25-3.24-2.69-5.51-2.69-9.44 1.95-2.99 2.88-4 6.5-4"/><path fill="#d2dde6" d="M198 227c3.2 1.47 5.82 3.31 8.62 5.44 7.81 5.5 14.95 7.02 24.38 6.56v3c-5.33.24-10.13-.48-15.35-1.56-2.61-.43-5.01-.51-7.65-.44h-2c-1.27.12-1.27.12-2.56.25-4.68-.34-8.28-2.18-12.44-4.25 2.55-1.27 3.43-.8 6.12-.06 1.09.29 1.09.29 2.2.59.55.15 1.11.31 1.68.47-.5-.72-.99-1.44-1.5-2.19-1.58-2.96-1.78-4.52-1.5-7.81"/><path fill="#d9e1e7" d="M199 107c12.23 2.95 23.94 7.43 35.32 12.77 4.83 2.22 9.76 4.21 14.68 6.23-1.87 1.05-1.87 1.05-4 2-2.67-.94-3.99-1.99-6-4l-3.44.12L232 124c-.47-.64-.94-1.28-1.42-1.94-2.01-2.62-3.18-2.72-6.39-3.18-3.9-.64-7.47-1.51-11.19-2.88v-2l-2.31.12C208 114 208 114 205 112c-1.05-.68-2.1-1.36-3.19-2.06-.93-.64-1.85-1.28-2.81-1.94z"/><path fill="#ebf1f3" d="m244 239 5 5c3.07-.78 3.07-.78 5-3 .72.89 1.44 1.77 2.19 2.69 2.45 2.94 5.07 5.63 7.81 8.31l3.81 3.81 1.83 1.83L271 259c-3.59 0-4.91-.91-7.96-2.74-.97-.57-1.93-1.14-2.93-1.73-1-.61-2.01-1.22-3.05-1.84-1-.6-2-1.19-3.03-1.81-4.15-2.47-8.21-4.92-12.03-7.88z"/><path fill="#274a6e" d="M183 169c6.83-.03 13.66-.04 20.5-.05l6.96-.03c3.35-.01 6.69-.01 10.04-.02 1.03 0 2.06-.01 3.12-.01 5.56 0 10.88.28 16.38 1.11l-1 4c-15.74 1.52-15.74 1.52-23-1v-1c4.45-.5 4.45-.5 9-1l-42-1z"/><path fill="#b7c3c9" d="M185 255h1c.02 4.24.04 8.47.05 12.71l.03 4.32c.01 2.07.01 4.14.02 6.21 0 1.25.01 2.49.01 3.78C186 285 186 285 185 287c.03 2.33.1 4.67.19 7 .15 6.75-1.04 12.02-4.19 18h-1c.37-7.48.75-14.91 1.94-22.31 1.78-11.47 2.28-23.12 3.06-34.69"/><path fill="#abb6c1" d="m169 210 2 1c-2.33 6.1-5.11 11.73-9 17h-2c-.15 1.02-.15 1.02-.31 2.06-.84 3.57-2.18 6.6-3.69 9.94h-2v3l4 1h-8c.67-4.03 2.72-7.25 4.78-10.7.37-.63.75-1.27 1.13-1.93.79-1.33 1.58-2.67 2.37-4.01 1.22-2.05 2.43-4.1 3.64-6.16.76-1.3 1.53-2.6 2.3-3.9.54-.92.54-.92 1.1-1.87 2.56-4.31 2.56-4.31 3.68-5.43"/><path fill="#114064" d="M158 243h14c-1.59 4.77-3.23 8.53-5.62 12.88-.64 1.15-1.27 2.3-1.92 3.49-.48.87-.96 1.73-1.46 2.63-1.21-3.62-1.11-6.93-1.06-10.69 0-.7.01-1.4.01-2.12.01-1.73.03-3.46.05-5.19z"/><path fill="#b6c0c9" d="M190.295 177.61c2.98-.1 5.91-.04 8.89.08 1.04.02 2.07.04 3.14.07 2.56.06 5.12.14 7.67.24v2c-10.39.5-10.39.5-21 1l-1 4h-2l-1 6h-2c-.12.6-.24 1.2-.37 1.81-.63 2.19-.63 2.19-2.63 5.19-1.19-1.66-1.19-1.66-2-4 1.24-2.62 1.24-2.62 3.19-5.44.64-.92 1.27-1.85 1.92-2.81.63-.9 1.25-1.81 1.89-2.75.35-.93.69-1.87 1.04-2.83 1.96-2.17 1.96-2.17 4.26-2.56"/><path fill="#f9fbfa" d="M249 127c3.43.6 6.44 1.48 9.64 2.85.85.36 1.69.71 2.55 1.08.87.37 1.73.75 2.62 1.13l2.68 1.15q3.255 1.38 6.51 2.79v1c-4.19.08-7.91-.14-12-1a93 93 0 0 0-5 0v-2c-.95.21-1.9.41-2.88.62-1.03.13-2.06.25-3.12.38l-2-2 1.06-1.88.94-2.12z"/><path fill="#94a5b5" d="M226 177h42l-1 2-3.26.06c-3.98.08-7.97.16-11.96.26-1.72.04-3.45.07-5.17.1-2.48.05-4.96.11-7.44.17-1.16.01-1.16.01-2.34.03-3.78.11-5.61.23-8.83 2.38v-2h-2z"/><path fill="#edf1f6" d="M146.188 114.375c.6.21 1.2.41 1.81.62.33 1.99.66 3.96 1 6h3c-.66 4.29-1.32 8.59-2 13l-7 1c-.33-.65-.66-1.31-1-2 1.65-.65 3.3-1.31 5-2 .64-5.31.64-5.31-1.33-10.08-1.5-1.72-3.02-3.35-4.67-4.92 3-2 3-2 5.19-1.62"/><path fill="#a7b7c4" d="M169 242h4c1.3 3.62 1.02 4.95-.51 8.56-.71 1.3-1.44 2.59-2.18 3.88-.35.64-.7 1.28-1.07 1.94-3.36 6.07-6.52 11.49-12.24 15.62 1.27-3.35 2.71-6.39 4.53-9.47.48-.82.96-1.64 1.46-2.48 1.01-1.7 2.01-3.4 3.02-5.1.72-1.23.72-1.23 1.46-2.48.44-.74.87-1.48 1.32-2.24 1.28-2.35 2.26-4.73 3.21-7.23z"/><path fill="#d0dde5" d="M286 226c4.6 1.48 9.09 3.19 13.56 5 .65.26 1.3.52 1.96.79 1.83.73 3.65 1.47 5.48 2.21 1.67.67 3.33 1.33 5 2v1c-6.11.2-11.91-.58-17.94-1.5-1.45-.21-1.45-.21-2.94-.43-2.37-.35-4.75-.71-7.12-1.07v-1h11v-2c-.93-.27-1.86-.54-2.81-.81-2.95-1.1-4.25-1.81-6.19-4.19"/><path fill="#ccd4dc" d="m255 198 32 2c-3 2-4.71 2.49-8.19 3.12-.9.17-1.8.34-2.73.51-.69.12-1.37.25-2.08.37v-2c-.93.05-.93.05-1.87.11-6.32.2-11.28-.74-17.13-3.11z"/><path fill="#202f45" d="m294 199-1 4h2v2c-7.43 2.43-7.43 2.43-11 1l3-3c-3.4-2.27-5.17-2.37-9.19-2.62-1.08-.08-2.17-.15-3.29-.23-.83-.05-1.66-.1-2.52-.15v-1c3.1-.2 6.21-.38 9.31-.56 1.32-.09 1.32-.09 2.67-.17 1.27-.07 1.27-.07 2.57-.15l2.37-.14C291 198 291 198 294 199"/><path fill="#efefee" d="M119 168h1c-1.63 32.9-1.63 32.9-4 40-1.49-2.98-.87-5.89-.62-9.12l.3-4.35c.06-.75.11-1.49.17-2.26.15-2.23.27-4.45.37-6.68.04-.7.08-1.41.11-2.14.1-1.98.2-3.95.29-5.93.37-3.44 1.15-6.29 2.38-9.52"/><path fill="#e1e9ed" d="M252 282h2c1.37 3.12 2.72 6.25 4.06 9.38.39.88.78 1.77 1.18 2.69l1.11 2.58c.34.78.68 1.57 1.03 2.38C262 301 262 301 261 303l-12-16 2-2 1 1z"/><path fill="#c6dcdc" d="M209 261c.99.5.99.5 2 1 .33 1.33.67 2.67 1 4l2 1c.63 2.29.63 2.29 1.12 5.06.17.92.34 1.84.51 2.79.12.71.25 1.42.37 2.15h1v14c-1.89-2.83-2.5-4.45-3.25-7.68-.22-.91-.43-1.82-.65-2.76s-.44-1.89-.66-2.87c-.22-.94-.44-1.88-.67-2.84-1.07-4.6-2.07-9.18-2.77-13.85"/><path fill="#1f6f78" d="M206 257h2c.67 2.08 1.34 4.16 2 6.25.37 1.16.74 2.32 1.12 3.52.88 3.23.88 3.23.88 7.23l-4 1c-2-3-2-3-2-6 .31-1.18.31-1.18.62-2.38.46-3.15-.37-4.74-1.62-7.62z"/><path fill="#123556" d="M247 232h27v1l-5 1-1 3-1-2c-3.01-1-5.04-1.1-8.19-1.06-.9.01-1.8.02-2.73.02L254 234l-2 5a139 139 0 0 1-5-5z"/><path fill="#1e5977" d="M217 260h1v8h2v16h-2c-.87-3-1.12-5.65-1.1-8.77.01-.89.01-1.77.01-2.69.01-1.38.01-1.38.03-2.79 0-.94.01-1.87.01-2.84.01-2.3.03-4.61.05-6.91"/><path fill="#d0e1ea" d="M258 247c3.36 1.43 5.28 3.16 7.62 5.94.89 1.03.89 1.03 1.79 2.09C269 257 269 257 271 260c-3.96-1.43-7.29-3.33-10.81-5.62-.98-.64-1.95-1.27-2.96-1.92L255 251l2-1z"/><path fill="#c4d0dc" d="M170 97c6.44.56 11.96 2.7 17.94 5.06.97.38 1.94.76 2.94 1.15 2.37.92 4.75 1.85 7.12 2.79-3.84 1.14-5.31.59-9-1-2.65-.74-5.32-1.36-8-2v-2c-.7-.12-1.4-.25-2.12-.38-3.06-.66-5.93-1.59-8.88-2.62z"/><path fill="#d0d6dc" d="M249 127c3.43.6 6.44 1.48 9.64 2.85.85.36 1.69.71 2.55 1.08.87.37 1.73.75 2.62 1.13l2.68 1.15q3.255 1.38 6.51 2.79v1h-7l-1-3c-2.98-.93-5.96-1.47-9.02-2.06-3.32-1.05-4.75-2.31-6.98-4.94"/><path fill="#bac2cc" d="M171 108h4c1.6 4 .34 7.05-1 11-1 1-1 1-4.56 1.06L166 120l1.94-.94c2-.89 2-.89 3.06-2.06.07-1.52.08-3.04.06-4.56-.01-.83-.02-1.66-.02-2.51-.02-.63-.03-1.27-.04-1.93"/><path fill="#022542" d="M179 252h3v4h2v8h-2c-4.06-6.28-4.06-6.28-3.75-9.94.25-.68.5-1.36.75-2.06"/><path fill="#c8d2db" d="M329 162c4.23 1.31 8.07 2.94 12 5v1h-20v-1c5.44-.5 5.44-.5 11-1v-2h-3z"/><path fill="#d6dfe6" d="M226 205c3.77 1.88 4.79 2.69 7 6l-4 1-1-2-1 17h-1z"/><path fill="#e3ecf3" d="M233 264c4.14 2.76 7.24 5.86 10 10-.99 1.49-.99 1.49-2 3-1.13-1.25-2.25-2.5-3.38-3.75-.62-.7-1.25-1.39-1.89-2.11-1.61-1.99-2.7-3.82-3.73-6.14z"/><path fill="#d8eaf1" d="M203 201c1.57 3.02 2.88 6.09 4.12 9.25.36.89.71 1.78 1.08 2.7.26.68.53 1.35.8 2.05l-7-1 2-1c-.16-.78-.31-1.56-.47-2.37-.29-1.52-.29-1.52-.59-3.07-.2-1.01-.4-2.02-.6-3.06-.11-.82-.22-1.65-.34-2.5z"/><path fill="#39505f" d="M183 248c2.03 3.05 2.25 3.6 2.2 7.01-.01.76-.02 1.52-.02 2.3l-.06 2.38c0 .79-.01 1.59-.02 2.41-.03 1.97-.06 3.93-.1 5.9h-1v-12h-2l-2-5z"/><path fill="#c6ccd3" d="M292 145c13 4 13 4 17 8-3.52-.65-6.89-1.51-10.31-2.56-.89-.27-1.77-.54-2.68-.82-.66-.2-1.33-.41-2.01-.62v-2h-2z"/><path fill="#c0cad2" d="m156 234 2 1-2 5h-2v3l4 1h-8c.51-2.17 1-4 2-6l3-1z"/><path fill="#c6d5e0" d="M255 290c4.44 3.52 5.52 7.75 7 13-3.26-3.02-5.78-6.14-8-10z"/><path fill="#abb7c2" d="M148 125c2 2 2 2 2.12 5.62L150 134l-7 1-1-2c.8-.21 1.61-.41 2.44-.62.84-.46 1.69-.91 2.56-1.38.9-3.05.9-3.05 1-6"/><path fill="#c9d3dd" d="M199 107c1.75.43 3.5.87 5.25 1.31.97.25 1.95.49 2.95.74 2.79.95 4.57 2.06 6.8 3.95-6.17-.27-10.17-1.04-15-5z"/><path fill="#99bcd4" d="M217 277v14c-2-3-2.49-4.71-3.12-8.19-.17-.9-.34-1.8-.51-2.73-.12-.69-.25-1.37-.37-2.08 3-1 3-1 4-1"/><path fill="#d8eaf2" d="M242 250c2.21 3.31 2.78 5.82 3.62 9.69.27 1.18.53 2.36.79 3.57.2.91.39 1.81.59 2.74h-3c-.79-5.32-1.43-10.65-2-16"/><path fill="#ddeaf2" d="M181 195c3 2 3 2 4 5 .85.5 1.69.99 2.56 1.5.81.5 1.61.99 2.44 1.5v3c-3.83-1.56-6.32-3.88-9-7z"/><path fill="#9babbb" d="M181 296h1c2.66 8.44 2.66 8.44.62 13.06-.53.97-1.07 1.94-1.62 2.94h-1z"/><path fill="#2b4261" d="m203 192 5 5-1 3-4 1z"/><path fill="#bfcbd5" d="M105 285h1c.08 2.6.14 5.21.19 7.81.02.74.05 1.48.07 2.24.08 5.5.08 5.5-1.77 7.96-.74.49-.74.49-1.49.99-.3-6.5.83-12.62 2-19"/><path fill="#274765" d="M247 232h6l1 2c-.94 2.62-.94 2.62-2 5a139 139 0 0 1-5-5z"/><path fill="#dde5e8" d="m160 115 2.69 1.94c3 1.87 4.86 2.65 8.31 3.06v1c-4.82.24-8.46-.55-13-2z"/><path fill="#a1b4c9" d="m302 233 10 3v1c-4.16.08-7.95-.02-12-1l2-1z"/><path fill="#2b5472" d="m186 228 3 1v2h2v2l4 1v2c-6.82-1.97-6.82-1.97-9-5z"/><path fill="#cad1d5" d="M119 168h1c.21 5.79-.41 10.43-2 16h-1c-.2-5.74-.27-10.61 2-16"/><path fill="#306075" d="M171 258c0 4-1.73 5.8-4 9l-4-1z"/><path fill="#314a64" d="M241 243c3.47 1.49 3.47 1.49 7 3l-2 2-2-1-1 3c-2-3-2-3-2-7"/><path fill="#213c56" d="M191 103h9v4l-9-3z"/><path fill="#d9ecf4" d="m128 259 2 1c-2.47 4.45-2.47 4.45-5 9l-2-2z"/><path fill="#d6ecf3" d="M133 250h2c-1.25 3.46-2.68 6.15-5 9v-6l3-1z"/><path fill="#20384c" d="M222 257c3.37 1.39 4.99 2.98 7 6-2.38-.19-2.38-.19-5-1-1.31-2.56-1.31-2.56-2-5"/><path fill="#2c4155" d="M165.188 104.375c.6.21 1.2.41 1.81.62h-3v2h-2v2h-2c-.33.99-.66 1.99-1 3 .31-2.87.31-2.87 1-6 3-2 3-2 5.19-1.62"/></svg>