<svg xmlns="http://www.w3.org/2000/svg" width="256" height="256" fill="none" viewBox="0 0 256 256"><g clip-path="url(#a)"><path fill="#c77590" d="M0 0h256v256H0z"/><path fill="#181818" fill-opacity=".16" fill-rule="evenodd" d="M54 119.5v25l7.5 7.5.5 46.5s-1 7 5 13 13.5 7 13.5 7H127l9 8h44.5s10.2-.5 15-6.5 5-14 5-14l.5-36-.5-39-7.5-8-32.5-34.5L98 83 71.5 99.5zm53.5 1.5c-2 0-3.5 1.5-6.5 4.5s-4.5 6.5-4.5 6.5l-1 8 1 11 10 4.5 46.5-1 10-9.5-4.5-14s-1.5-4-4-6.5-6.5-3.5-6.5-3.5z" clip-rule="evenodd"/><path fill="#e6d5fa" fill-rule="evenodd" d="M201 174v9c0 2.333-1.4 8.1-7 12.5s-12 5.833-14.5 6H136l-8-8H82.5c-4-.667-12.8-3.3-16-8.5-4-6.5-4.5-8-4.5-14v-44l-7.5-7.5V68l30 3.5 77-3.5 16.5 2 6 48 10 19 7 7zM96.5 144v-36.5c.8-7.6 8-11.5 11.5-12.5h38.5c7.6 0 11.833 8 13 12v34.5l-2 8-8.5 5h-41l-9-3.5z" clip-rule="evenodd"/><path fill="url(#b)" fill-rule="evenodd" d="m54 114.5 7.5 7v47c1.167 6.5 6.6 19.6 19 20s36.833.167 47.5 0l8 8h47.5c5.833-2 17.5-8.9 17.5-20.5v-45.5l-7.5-8v-45c-.667-7.333-5.9-21.9-21.5-21.5s-35.833.167-44 0l-7.5-8H74c-8 0-20 7.8-20 19zM96.5 102v39.5c0 1.333.8 4.8 4 8s7.333 4.333 9 4.5h37c2.167-.667 6.9-2.5 8.5-4.5s3-5.167 3.5-6.5c.167-11.5.4-35.9 0-41.5-.42-5.875-7-10.5-11-11s-30.981 0-37.5 0c-6 0-13.5 7.5-13.5 11.5" clip-rule="evenodd"/></g><defs><linearGradient id="b" x1="63" x2="193" y1="55.5" y2="192" gradientUnits="userSpaceOnUse"><stop stop-color="#fff"/><stop offset="1" stop-color="#f4eefd"/></linearGradient><clipPath id="a"><path fill="#fff" d="M0 0h256v256H0z"/></clipPath></defs></svg>