<svg xmlns="http://www.w3.org/2000/svg" width="485" height="485" fill="none" viewBox="0 0 485 485"><circle cx="242.5" cy="242.5" r="242.5" fill="#273535"/><path fill="#fff" fill-rule="evenodd" d="M305.883 317.423c0 27.254-18.257 52.692-45.033 59.96-26.167 7.873-55.378-2.423-71.2-25.438s-13.996-53.903 3.651-75.101c4.26-4.845 12.171-6.662 17.648-3.028l17.648 10.902c-3.651 3.633-7.302 7.267-10.954 12.113-9.736 10.901-10.954 26.648-2.434 38.762 7.303 12.113 22.516 17.564 36.513 13.93 13.997-4.24 23.125-16.959 23.125-31.494 0-10.902-4.869-20.593-14.605-26.649l-3.652-2.423-19.473-12.113-24.951-15.141-10.345-6.057c-.608-.606-.608-.606-1.217-.606-1.217-.605-2.434-1.817-4.26-2.422-28.601-19.987-40.772-55.72-31.036-89.031 10.346-33.311 40.164-56.326 74.852-57.538 34.687-1.211 66.331 19.987 77.894 52.692 12.17 32.706 1.217 69.045-25.559 90.243-4.26 3.634-10.954 3.634-15.823 1.211l-28.601-15.141v-35.128h12.779v-36.339h-12.779v-16.353h-21.299v87.214l21.907 12.719 23.734 13.93c.608 0 .608.606 1.217.606l1.825.605c.609.606 1.217.606 1.826 1.212 17.648 10.901 28.602 31.494 28.602 53.903" clip-rule="evenodd"/></svg>