<svg xmlns="http://www.w3.org/2000/svg" width="512" height="512" fill="none" viewBox="0 0 512 512"><g clip-path="url(#a)"><path fill="url(#b)" d="M512 160c0-56.005 0-84.008-10.899-105.4a100 100 0 0 0-43.702-43.7C436.008 0 408.005 0 352 0H160C103.995 0 75.992 0 54.6 10.9a100 100 0 0 0-43.7 43.7C0 75.993 0 103.996 0 160v192c0 56.005 0 84.008 10.9 105.399a100 100 0 0 0 43.7 43.702C75.993 512 103.996 512 160 512h192c56.005 0 84.008 0 105.399-10.899a100 100 0 0 0 43.702-43.702C512 436.008 512 408.005 512 352z"/><path fill="#fff" d="M425.708 148.325c11.246 152.315-86.662 224.305-174.433 231.983-81.602 7.136-158.413-43.005-165.151-120.043-5.56-63.646 33.778-90.743 64.684-93.443 31.787-2.787 58.5 19.134 60.818 45.676 2.231 25.518-13.691 37.134-24.765 38.1-8.758.768-19.776-4.549-20.77-15.965-.854-9.809 2.871-11.145 1.961-21.566-1.62-18.553-17.798-20.714-26.655-19.946-10.719.939-30.167 13.449-27.438 44.611 2.744 31.432 32.882 56.269 72.39 52.814 42.634-3.725 72.318-36.92 74.55-83.478a16.9 16.9 0 0 1 1.521-7.152l.014-.056c.459-.975.997-1.912 1.606-2.8.911-1.365 2.077-2.872 3.583-4.522.015-.042.015-.042.043-.042 1.094-1.237 2.417-2.573 3.909-4.009 18.624-17.571 85.696-59.012 149.129-45.89a6.35 6.35 0 0 1 5.004 5.728"/></g><defs><linearGradient id="b" x1="459.192" x2="22.611" y1="122.156" y2="297.091" gradientUnits="userSpaceOnUse"><stop stop-color="#0cc5ff"/><stop offset="1" stop-color="#007fff"/></linearGradient><clipPath id="a"><path fill="#fff" d="M0 0h512v512H0z"/></clipPath></defs></svg>