<svg xmlns="http://www.w3.org/2000/svg" width="278" height="278" fill="none" viewBox="0 0 278 278"><path fill="#010101" d="m168.949 226.276-20.766-29.994-6.23 7.24v22.754h-18.689V121.299h18.689v58.952h1.039l22.842-26.89h21.805l-26.996 31.028 28.553 41.887z"/><path fill="#010101" d="M132.089 138.36C108.209 138.36 89 118.709 89 94.921 89 71.134 108.209 52 132.089 52c23.881 0 43.09 19.134 43.09 42.921.519 23.788-19.209 43.439-43.09 43.439m0-69.295c-14.536 0-25.957 11.894-25.957 25.856 0 14.48 11.94 25.857 25.957 25.857 14.537 0 25.958-11.894 25.958-25.857.519-13.962-11.421-25.856-25.958-25.856"/></svg>