<svg xmlns="http://www.w3.org/2000/svg" viewBox="0 0 544.25 943.795"><path fill="#59c7f2" d="M544.249.004V.001L471.98 0v.004c0 109.233-87.637 197.984-196.434 199.812-1.141-.014-2.278-.043-3.422-.043s-2.281.029-3.422.043C159.905 197.987 72.269 109.236 72.269.004V.001L0 0v.004C0 100.892 54.904 188.955 136.462 235.95 54.904 282.945 0 371.008 0 471.897S54.905 660.85 136.463 707.845C54.905 754.838 0 842.902 0 943.791v.004h72.269v-.004c0-109.256 87.674-198.022 196.504-199.813 1.117.013 2.231.042 3.352.042s2.234-.029 3.352-.042c108.83 1.791 196.504 90.557 196.504 199.813v.004h72.269v-.004c0-100.889-54.905-188.953-136.463-235.947 81.559-46.995 136.463-135.058 136.463-235.948s-54.904-188.952-136.462-235.947C489.344 188.955 544.249 100.892 544.249.004M471.98 471.897c0 109.256-87.674 198.022-196.504 199.813-1.117-.013-2.231-.042-3.352-.042s-2.234.029-3.352.042c-108.83-1.791-196.504-90.557-196.504-199.813 0-109.233 87.637-197.984 196.434-199.812 1.141.014 2.278.043 3.422.043s2.281-.029 3.422-.043c108.797 1.828 196.434 90.578 196.434 199.812"/></svg>