<svg xmlns="http://www.w3.org/2000/svg" width="401" height="417" fill="none" viewBox="0 0 401 417"><path fill="#c6ff00" fill-rule="evenodd" d="M200.5 416.149c94.965 0 175.043-63.839 199.785-151.006 1.016-3.577-1.701-7.074-5.398-7.074h-56.35c-3.529 0-6.668 2.208-8.056 5.472-21.518 50.586-71.615 86.048-129.981 86.048S92.038 314.127 70.52 263.541c-1.39-3.264-4.528-5.472-8.057-5.472H6.113c-3.697 0-6.414 3.497-5.398 7.074C25.457 352.31 105.535 416.149 200.5 416.149m0-416c94.965 0 175.043 63.84 199.785 151.007 1.016 3.577-1.701 7.073-5.398 7.073h-56.35c-3.529 0-6.668-2.207-8.056-5.471-21.518-50.586-71.615-86.049-129.981-86.049S92.038 102.172 70.52 152.758c-1.39 3.264-4.528 5.471-8.057 5.471H6.113c-3.697 0-6.414-3.496-5.398-7.073C25.457 63.989 105.535.149 200.5.149m-36.551 158.08c-7.341 0-13.292 5.96-13.292 13.312v73.216c0 7.352 5.951 13.312 13.292 13.312h73.102c7.341 0 13.292-5.96 13.292-13.312v-73.216c0-7.352-5.951-13.312-13.292-13.312z" clip-rule="evenodd"/></svg>