<svg xmlns="http://www.w3.org/2000/svg" width="144" height="144" fill="none" viewBox="72 72 144 144"><path fill="#44d62c" d="M216 144c0 49.706-22.294 72-72 72s-72-22.294-72-72 22.294-72 72-72 72 22.294 72 72" style="fill:#44d62c;fill:color(display-p3 .2667 .8392 .1725);fill-opacity:1"/><path fill="#000" d="M150.505 102.531h-20.03l-3.514 10.625h11.125v22.382h12.419z" style="fill:#000;fill-opacity:1"/><path fill="#000" fill-rule="evenodd" d="M166.844 162.626c0 12.616-10.228 22.843-22.844 22.843s-22.843-10.227-22.843-22.843 10.227-22.843 22.843-22.843 22.844 10.227 22.844 22.843m-10.371 0c0 6.889-5.584 12.473-12.473 12.473-6.888 0-12.472-5.584-12.472-12.473 0-6.888 5.584-12.473 12.472-12.473 6.889 0 12.473 5.585 12.473 12.473" clip-rule="evenodd" style="fill:#000;fill-opacity:1"/></svg>