<svg xmlns="http://www.w3.org/2000/svg" width="593" height="593" fill="none" viewBox="0 0 593 593"><path fill="#ab9ff2" d="M70.055 543c75.549 0 132.325-65.703 166.208-117.622-4.121 11.487-6.411 22.973-6.411 34 0 30.325 17.4 51.919 51.74 51.919 47.161 0 97.527-41.351 123.626-85.919q-2.748 9.65-2.747 17.919c0 21.135 11.904 34.46 36.172 34.46 76.465 0 153.387-135.541 153.387-254.081C592.03 131.324 545.327 50 428.112 50 222.069 50 0 301.784 0 464.432 0 528.297 34.34 543 70.055 543M357.14 213.568c0-22.973 12.821-39.054 31.593-39.054 18.315 0 31.136 16.081 31.136 39.054s-12.821 39.513-31.136 39.513c-18.772 0-31.593-16.54-31.593-39.513m97.985 0c0-22.973 12.821-39.054 31.593-39.054 18.315 0 31.136 16.081 31.136 39.054s-12.821 39.513-31.136 39.513c-18.772 0-31.593-16.54-31.593-39.513"/></svg>