<svg xmlns="http://www.w3.org/2000/svg" xml:space="preserve" viewBox="0 0 512 512"><path fill="#464db5" d="M255 513c-9.02 0-18.042 0-27.412-.413-1.691-.804-3.013-1.297-4.378-1.568-5.076-1.008-10.167-1.942-15.15-3.238 1.775-2.376 3.286-4.58 5.143-6.438a1064336 1064336 0 0 1 288.284-288.311c2.117-2.117 4.372-4.096 6.892-5.897 1.117 5.995 1.858 11.754 2.765 17.487.086.544 1.213.923 1.856 1.378 0 9.354 0 18.708-.326 28.631-1.749 1.687-3.283 2.69-4.573 3.944-4.28 4.163-8.484 8.403-12.693 12.637-9.363 9.42-18.7 18.865-28.07 28.278a9636 9636 0 0 1-26.742 26.767c-9.524 9.493-19.095 18.939-28.618 28.433-9.4 9.371-18.767 18.776-28.147 28.168-9.386 9.398-18.775 18.792-28.152 28.199-9.02 9.05-18.001 18.138-27.043 27.166-9.516 9.5-19.101 18.933-28.624 28.427-9.4 9.37-18.838 18.707-28.112 28.202-5.774 5.912-11.276 12.09-16.9 18.148"/><path fill="#5f3eb7" d="M286.531 1c1.566.666 2.589 1.696 3.772 1.935 5.303 1.074 10.652 1.923 16.248 3.372-1.388 2.768-2.809 5.24-4.733 7.226-6.595 6.803-13.37 13.434-20.07 20.134-14.701 14.697-29.393 29.403-44.1 44.093-17.06 17.039-34.138 34.057-51.196 51.097-17.882 17.864-35.816 35.676-53.58 53.656-5.214 5.276-9.929 11.044-15.326 16.697-3.428.138-6.418.363-9.375.14-3.608-.27-5.077.942-4.892 4.736.24 4.94-.039 9.906-.459 14.912-3.994 3.107-7.83 5.95-11.209 9.262-6.61 6.48-12.88 13.31-19.447 19.836-9.265 9.209-18.764 18.182-27.993 27.426s-18.189 18.755-27.393 28.024c-3 3.02-6.396 5.646-9.61 8.453-1.39-6.934-2.758-13.871-4.191-20.796a8 8 0 0 0-1.57-3.34C1 280.98 1 273.958 1.342 266.383c1.766-1.379 3.444-1.944 4.574-3.063 15.951-15.8 31.845-31.66 47.719-47.54 17.048-17.053 34.04-34.164 51.093-51.212 17.525-17.52 35.12-34.972 52.638-52.499 17.048-17.054 34.01-34.195 51.064-51.243 17.408-17.402 34.925-34.695 52.271-52.158 2.155-2.17 3.55-5.094 5.298-7.668z"/><path fill="#623db7" d="M265.531 1c-1.278 2.574-2.674 5.498-4.829 7.668-17.346 17.463-34.863 34.756-52.27 52.158-17.055 17.048-34.017 34.189-51.065 51.243-17.519 17.527-35.113 34.978-52.638 52.499-17.054 17.048-34.045 34.159-51.093 51.213a13799 13799 0 0 1-47.72 47.54c-1.129 1.118-2.807 1.683-4.573 2.593C1 253.312 1 240.624 1 227.469c.666-1.582 1.675-2.622 1.933-3.822.773-3.61 1.253-7.28 2.355-11.395 2.042-1.716 3.687-2.855 5.094-4.235a1142 1142 0 0 0 14.39-14.396c6.505-6.612 12.93-13.302 19.45-19.9 6.17-6.242 12.395-12.429 18.634-18.602 6.712-6.64 13.494-13.21 20.196-19.86 7.049-6.994 14.041-14.045 21.055-21.074 6.436-6.451 12.864-12.91 19.302-19.36q10.172-10.19 20.354-20.372c6.56-6.561 13.142-13.099 19.676-19.686 6.413-6.464 12.724-13.03 19.176-19.456 6.69-6.662 13.57-13.133 20.216-19.836 3.233-3.261 6.123-6.862 9.168-10.308 3.605-.723 7.218-1.409 10.81-2.192a8.1 8.1 0 0 0 3.33-1.57C239.02 1 252.042 1 265.53 1"/><path fill="#444eb5" d="M312 506.834c-6.929 1.39-13.86 2.757-20.78 4.189a8.1 8.1 0 0 0-3.345 1.569c-10.563.408-21.25.408-32.406.408 5.155-6.058 10.657-12.236 16.43-18.148 9.275-9.495 18.712-18.831 28.113-28.202 9.523-9.494 19.108-18.926 28.624-28.427 9.042-9.028 18.023-18.116 27.043-27.166 9.377-9.407 18.766-18.801 28.152-28.2 9.38-9.391 18.747-18.796 28.147-28.167 9.523-9.494 19.094-18.94 28.618-28.433a9636 9636 0 0 0 26.742-26.767c9.37-9.413 18.707-18.859 28.07-28.278 4.209-4.234 8.414-8.474 12.693-12.637 1.29-1.254 2.824-2.257 4.573-3.475.326 10.254.326 20.608.326 31.431-.666 1.604-1.688 2.666-1.937 3.886-1.138 5.573-2.06 11.19-3.432 17.332-11.023 11-21.748 21.383-32.305 31.934-12.083 12.078-23.952 24.37-36.035 36.448-11.847 11.842-23.922 23.456-35.758 35.308-14.65 14.67-29.084 29.557-43.747 44.215-14.544 14.54-29.331 28.838-43.805 43.447-1.946 1.964-2.684 5.126-3.982 7.733"/><path fill="#4a4bb6" d="M491.107 152.954c7.655 17.062 13.75 34.62 16.922 53.527-2.17 2.455-4.425 4.434-6.542 6.55a1064336 1064336 0 0 0-288.284 288.312c-1.857 1.858-3.368 4.062-5.143 6.438-12.496-2.92-24.93-6.033-37.263-9.5-4.5-1.267-8.764-3.378-13.459-5.651 2.96-4.76 5.864-9.345 9.588-13.121 17.41-17.656 35.067-35.07 52.599-52.606 17.059-17.065 34.05-34.197 51.114-51.258 17.536-17.532 35.15-34.986 52.68-52.525 16.938-16.95 33.79-33.987 50.754-50.913 1.366-1.362 3.302-2.153 5.171-2.978 1.073.732 1.947 1.234 2.93 2.061 5.683 4.994 12.145 6.947 19.354 6.714 8.7-.28 8.81 1.992 8.358-9.478.071-3.207.25-5.975.02-8.708-.076-.89-1.217-1.691-2.324-2.597-5.674-.343-11.548 1.218-14.533-5.452.957-2.138 1.443-4.294 2.757-5.645 6.105-6.282 12.461-12.319 18.687-18.484q10.05-9.948 20.022-19.976c6.41-6.447 12.747-12.968 19.16-19.412 7.113-7.149 14.152-14.378 21.457-21.325 5.122-4.871 10.636-9.33 15.975-13.973"/><path fill="#4e49b6" d="M379.045 268.997c-1.67 1.057-3.606 1.848-4.972 3.21-16.964 16.926-33.816 33.963-50.755 50.913-17.528 17.54-35.143 34.993-52.679 52.525-17.063 17.06-34.055 34.193-51.114 51.258-17.532 17.537-35.188 34.95-52.6 52.606-3.723 3.776-6.628 8.361-9.917 12.95-12.902-6.336-25.796-13.046-38.768-20.391 1.146-2.389 2.142-4.37 3.631-5.86 9.39-9.387 18.957-18.597 28.335-27.996 11.838-11.864 23.485-23.92 35.337-35.769 12.09-12.085 24.397-23.951 36.482-36.04 11.85-11.853 23.472-23.934 35.316-35.792 16.07-16.089 32.277-32.042 48.35-48.128 1.092-1.093 1.555-2.814 2.766-4.315 9.782.093 18.735-.919 26.03-8.234 2.674-2.802 5.06-5.446 7.733-8.253 3.083-3.348 5.88-6.534 8.986-9.903 4.877-3.818 9.287-3.045 13.74.604 2.75 3.089 5.364 5.866 8.113 8.95 2.085 2.76 4.036 5.212 5.986 7.665"/><path fill="#5743b6" d="M60.132 420.403c-7.037-9.444-14.502-18.606-20.97-28.424-5.026-7.626-8.808-16.072-13.034-24.842 1.554-2.647 2.813-4.782 4.478-6.531 6.379-6.697 12.855-13.302 19.357-19.88 6.275-6.347 12.631-12.614 18.943-18.924 7.005-7.004 13.868-14.157 21.052-20.971 4.104-3.893 8.726-7.24 13.199-10.413.216 2.118.349 3.818.366 5.976-.143 5.087-.383 9.73-.063 14.335.091 1.306 1.751 3.51 2.798 3.574 5.72.354 11.474.169 17.631.169 0-6.66 0-12.576.05-18.957.072-5.478.094-10.493.289-15.823 1.404-5.9 4.72-10.078 9.458-13.63 7.822-4.252 14.97-2.57 22.248 1.326 8.14 4.468 16.043 8.679 24.169 13.138 4.45 2.65 8.676 5.054 12.856 7.811-.846 1.563-1.47 2.947-2.472 3.952-6.575 6.591-13.275 13.058-19.854 19.645-17.038 17.058-34.008 34.183-51.053 51.233-17.75 17.757-35.53 35.485-53.385 53.138-1.705 1.686-4.028 2.747-6.063 4.098"/><path fill="#5246b6" d="M60.12 420.773c2.047-1.72 4.37-2.782 6.075-4.468 17.854-17.653 35.634-35.381 53.385-53.138 17.045-17.05 34.015-34.175 51.053-51.233 6.579-6.587 13.279-13.054 19.854-19.645 1.003-1.005 1.626-2.39 2.739-3.934.663-.272 1.013-.207 1.496.189 4.487 2.715 8.842 5.098 13.302 7.682.106.201.462.484.462.484s.452-.05.763.095c1.126.49 1.942.835 2.91 1.497 9.4 5.387 19.2 8.301 29.794 8.276-1.593 2.444-2.895 4.79-4.718 6.617-45.118 45.209-90.303 90.352-135.423 135.56-2.2 2.205-3.915 4.894-5.856 7.358-11.949-11.657-23.897-23.314-35.835-35.34"/><path fill="#5d41b7" d="M103.072 289.999c-4.388 3.592-9.01 6.94-13.114 10.832-7.184 6.814-14.047 13.967-21.052 20.97-6.312 6.311-12.668 12.578-18.943 18.925-6.502 6.578-12.978 13.183-19.357 19.88-1.665 1.749-2.924 3.884-4.513 6.17-7.857-13.97-12.853-29.29-17.075-44.892-.807-2.982-1.327-6.042-1.915-9.475 3.28-3.217 6.676-5.843 9.675-8.863 9.204-9.269 18.164-18.78 27.393-28.024s18.728-18.217 27.993-27.426C78.731 241.57 85 234.741 91.611 228.26c3.378-3.312 7.215-6.155 11.512-8.972 2.619.43 4.57.778 6.524.79 17.783.111 35.568.164 53.307.578-1.987 3.15-3.78 6.077-5.907 8.737-3.573 4.466-7.358 8.763-11.506 13.204-17.255.173-29.988 7.068-37.93 22.628-1.41 4.746-2.568 9.243-3.88 14.113-.321 3.802-.49 7.232-.659 10.66"/><path fill="#4f49b6" d="M96.106 456.418c1.791-2.769 3.506-5.458 5.706-7.662 45.12-45.209 90.305-90.352 135.423-135.561 1.823-1.827 3.125-4.173 5.122-6.719 9.114-1.684 17.18-4.313 24.09-10.48 4.061-4.706 7.784-9.358 11.768-14.25 2.128-5.741 3.994-11.243 6.18-16.847 13.117-12.79 25.912-25.478 38.993-38.042 1.064.796 1.84 1.47 2.733 2.46 2.193 2.389 4.271 4.461 6.359 6.88.533 1.568 1.057 2.789 1.28 4.144-2.784 2.98-5.27 5.827-8.064 8.808-4.885 5.68-10.156 9.281-17.967 8.122-3.437-.51-2.311 2.707-2.379 5.132-.032 2.808.02 5.177-.012 7.972.465 3.042-2.007 6.771 2.663 7.865-.755 1.429-1.218 3.15-2.31 4.243-16.073 16.086-32.28 32.039-48.35 48.128-11.844 11.858-23.466 23.939-35.316 35.792-12.085 12.089-24.393 23.955-36.482 36.04-11.852 11.85-23.499 23.905-35.337 35.77-9.378 9.398-18.945 18.608-28.335 27.996-1.489 1.488-2.485 3.47-3.811 5.564-7.336-4.79-14.57-9.92-21.954-15.355"/><path fill="#653bb7" d="M211.58 5.102c-2.626 3.511-5.516 7.112-8.75 10.373-6.645 6.703-13.526 13.174-20.215 19.836-6.452 6.425-12.763 12.992-19.176 19.456-6.534 6.587-13.117 13.125-19.676 19.686-6.787 6.79-13.573 13.578-20.354 20.372-6.438 6.45-12.866 12.909-19.302 19.36-7.014 7.03-14.006 14.08-21.055 21.074-6.702 6.65-13.484 13.22-20.196 19.86-6.239 6.173-12.465 12.36-18.634 18.603-6.52 6.597-12.945 13.287-19.45 19.899a1140 1140 0 0 1-14.39 14.396c-1.407 1.38-3.052 2.519-4.902 3.875 1.437-8.178 2.301-16.78 5.121-24.682 5.923-16.602 12.046-33.23 19.62-49.118 8.691-18.234 20.666-34.514 33.923-49.862 16.3-18.873 35.1-34.726 56.125-47.954 25.14-15.816 52.055-27.45 81.302-33.317 3.197-.642 6.393-1.281 10.009-1.857"/><path fill="#4150b5" d="M312.409 506.898c.888-2.671 1.626-5.833 3.572-7.797 14.474-14.61 29.261-28.907 43.805-43.447 14.663-14.658 29.097-29.544 43.747-44.215 11.836-11.852 23.91-23.466 35.758-35.308 12.083-12.078 23.952-24.37 36.035-36.448 10.557-10.55 21.282-20.934 32.22-31.537-3.407 13.04-6.389 26.48-10.95 39.359-8.548 24.132-21.018 46.333-37.082 66.262-9.114 11.306-18.794 22.319-29.36 32.25-14 13.16-29.698 24.269-46.503 33.804-21.548 12.228-44.42 20.92-68.346 27.032-.787.2-1.656.08-2.896.045"/><path fill="#5942b6" d="M353.04 19.88c8.496 3.781 17.16 7.236 25.44 11.443 6.969 3.54 13.494 7.956 20.19 12.55-6.032 6.518-12.088 12.42-18.037 18.428-12.005 12.125-23.871 24.388-35.943 36.446-14.533 14.516-29.26 28.836-43.829 43.316-15.978 15.881-31.934 31.786-47.742 47.836-2.856 2.9-4.952 6.55-7.85 9.89-7.099-.105-13.746-.318-20.395-.376-16.291-.142-32.583-.213-48.778-.647 4.176-4.88 8.122-9.556 12.365-13.943 6.675-6.901 13.55-13.607 20.339-20.398 6.56-6.563 13.115-13.134 19.678-19.695 6.791-6.788 13.603-13.555 20.382-20.355 6.668-6.69 13.3-13.415 19.961-20.11 6.424-6.458 12.847-12.915 19.304-19.34 6.694-6.661 13.47-13.242 20.132-19.936 6.426-6.456 12.71-13.052 19.13-19.514 8.514-8.568 17.098-17.066 25.652-25.594"/><path fill="#5d40b6" d="M352.844 19.577c-8.359 8.832-16.943 17.33-25.457 25.898-6.42 6.462-12.704 13.058-19.13 19.514-6.662 6.694-13.438 13.275-20.132 19.937-6.457 6.424-12.88 12.881-19.304 19.338-6.661 6.696-13.293 13.422-19.961 20.11-6.78 6.8-13.59 13.568-20.382 20.356-6.563 6.561-13.117 13.132-19.678 19.695-6.788 6.791-13.664 13.497-20.339 20.398-4.243 4.387-8.19 9.062-12.822 14.053-19.582.372-38.61.298-57.639.224 4.943-5.543 9.658-11.311 14.871-16.587 17.765-17.98 35.7-35.792 53.581-53.656 17.058-17.04 34.137-34.058 51.195-51.097 14.708-14.69 29.4-29.396 44.1-44.093 6.702-6.7 13.476-13.33 20.07-20.134 1.925-1.985 3.346-4.458 5.09-7.037 6.421.975 12.879 1.852 19.053 3.684 9.003 2.67 17.803 6.028 26.884 9.397"/><path fill="#5545b6" d="M245.72 199.752c2.447-3.303 4.543-6.953 7.399-9.853 15.808-16.05 31.764-31.955 47.742-47.836 14.568-14.48 29.296-28.8 43.829-43.316 12.072-12.058 23.938-24.321 35.943-36.446 5.95-6.008 12.005-11.91 18.216-18.133 12.456 9.545 24.71 19.362 36.827 29.669-3.773 3.88-7.475 7.206-11.034 10.678-6.284 6.13-12.476 12.354-18.716 18.529-6.713 6.642-13.457 13.254-20.154 19.914-6.925 6.887-13.814 13.81-20.711 20.726-6.553 6.57-13.09 13.158-19.644 19.727-6.666 6.68-13.49 13.209-19.97 20.064-4.715 4.988-8.981 10.399-13.849 15.73-2.973.508-6.732-1.105-7 3.84-7.768 7.015-15.183 13.985-22.965 20.955-1.1 0-1.833 0-2.813-.231a111 111 0 0 1-4.143-6.038c-7.515-9.806-17.416-15.232-28.956-17.979"/><path fill="#5246b6" d="M312 199.096c4.466-5.222 8.732-10.633 13.447-15.62 6.48-6.856 13.304-13.385 19.97-20.065 6.555-6.569 13.091-13.156 19.644-19.727 6.897-6.916 13.786-13.84 20.711-20.726 6.697-6.66 13.44-13.272 20.154-19.914 6.24-6.175 12.432-12.4 18.716-18.53 3.559-3.471 7.26-6.796 11.182-10.375 8.575 9.14 16.87 18.464 25.154 27.799.978 1.102 1.887 2.267 2.694 3.898-4.072 4.524-7.988 8.576-11.953 12.579a11893 11893 0 0 1-28.416 28.613 13673 13673 0 0 1-28.158 28.134c-9.518 9.491-19.086 18.934-28.567 28.463-6.075 6.107-12.033 12.33-18.211 18.251-.065-.424.038-.597-.163-.87-.872-.402-1.44-.703-2.199-1.275-1.425-1.512-2.659-2.754-4.036-4.292-7.526-10.402-17.272-16.116-29.97-16.343"/><path fill="#4f49b6" d="M348.534 222.127c6.011-6.171 11.969-12.395 18.044-18.502 9.481-9.529 19.049-18.972 28.567-28.463a13673 13673 0 0 0 28.158-28.134c9.491-9.52 18.958-19.062 28.416-28.613 3.965-4.003 7.88-8.055 12.103-12.274 10.855 14.303 19.669 29.815 27.228 46.45-5.282 5.006-10.796 9.465-15.918 14.336-7.305 6.947-14.344 14.176-21.457 21.325-6.413 6.444-12.75 12.965-19.16 19.412a3612 3612 0 0 1-20.022 19.976c-6.226 6.165-12.582 12.202-18.687 18.484-1.314 1.351-1.8 3.507-3.008 5.492-1.075-.442-1.808-1.082-2.692-2.033-2.541-2.857-4.933-5.403-7.472-8.266-3.05-2.726-.072-4.3.97-6.348 3.363-3.658 6.441-7.157 9.83-10.835 4.64-5.65 11.188-3.251 16.96-4.359-.12-1.878-.212-3.325-.193-5.17.112-5.147.112-9.895.112-14.7-15.542-2.32-27.47 2.511-36.388 15.292-1.864 1.979-3.43 3.806-5.296 5.793-6.832 8.505-12.166 8.735-17.6 4.412-.902-1.265-1.698-2.27-2.495-3.275"/><path fill="#f5f3fa" d="M245.27 199.79c11.991 2.71 21.892 8.135 29.014 18.03-7.849.662-15.418.804-22.968 1.254-2.135.127-4.215 1.154-6.737 1.767a137 137 0 0 1-5.76-.613c-25.55-.027-50.685.028-75.82.084-17.784-.07-35.569-.123-53.352-.234-1.954-.012-3.905-.36-6.16-.841-.247-5.245.032-10.21-.208-15.151-.185-3.794 1.284-5.006 4.892-4.735 2.957.222 5.947-.003 9.375-.14 19.482-.037 38.51.037 57.996 0 16.75-.011 33.04.06 49.332.202 6.649.058 13.296.271 20.395.377"/><path fill="#c1bfe5" d="M379.244 269.229c-2.15-2.685-4.1-5.137-5.711-7.903 2.317-.319 4.296-.324 6.274-.328 6.925-.016 13.865.235 20.765-.183 2.65-.16 6.643 1.078 7.463-3.53.654.842 1.795 1.642 1.87 2.533.23 2.733.052 5.5-.426 8.764-4.876.812-9.295 1.113-13.713 1.42q-6.851.479-13.702.962c-.873-.501-1.747-1.003-2.82-1.735"/><path fill="#cac6e9" d="M407.582 257.221c-.367 4.672-4.36 3.434-7.01 3.594-6.9.418-13.84.167-20.765.183-1.978.004-3.957.01-6.409.02-3.088-2.77-5.703-5.547-8-8.65 8.499-1.04 16.679-1.758 24.859-2.475.733.64 1.466 1.281 2.45 2.076 3.327 6.47 9.2 4.909 14.875 5.252"/><path fill="#b6b3e1" d="M382.175 271.29c4.457-.647 9.024-.97 13.591-1.288 4.418-.307 8.837-.608 13.661-.967.91 10.961.801 8.688-7.899 8.97-7.21.232-13.67-1.721-19.353-6.715"/><path fill="#d2d0ec" d="M390.106 249.583c-8.03 1.027-16.21 1.744-24.842 2.475-4.77-3.325-9.18-4.098-14.52-.277-7.102.195-13.444.408-19.756.071-1.706-.09-3.324-1.846-4.982-2.838 2.485-2.846 4.97-5.692 7.9-8.343 2.347.905 4.24 2.197 6.153 2.227 11.975.187 23.955.161 35.932.029 2.268-.025 4.527-.842 6.79-1.293 2.392 2.546 4.784 5.092 7.325 7.949"/><path fill="#cac6e9" d="M325.696 249.149c1.968.857 3.586 2.612 5.292 2.703 6.312.337 12.654.124 19.447.113-2.335 3.182-5.132 6.368-8.59 9.558-12.577.15-24.494.296-36.412.442-.015-1.987-1.141-5.205 2.296-4.694 7.81 1.16 13.082-2.442 17.967-8.122"/><path fill="#c1bfe5" d="M305.35 262.403c12-.584 23.918-.73 36.21-.717-2.013 2.802-4.4 5.446-7.555 8.228-10.041.103-19.313.07-28.584.035-.051-2.369-.103-4.738-.07-7.546"/><path fill="#b6b3e1" d="M305.338 270.375c9.354-.392 18.626-.358 28.38-.304-6.526 7.178-15.48 8.19-25.261 8.097-5.126-1.022-2.654-4.751-3.119-7.793"/><path fill="#d6d0ed" d="M107.861 264.975c7.692-15.31 20.425-22.205 38.094-22.27 5.927 1.506 11.33 2.281 15.978 4.583 10.54 5.22 20.708 11.194 30.8 17.156-2.272.715-4.303 1.41-6.362 1.508-10.22.48-20.448.802-30.674 1.18-7.042-3.64-14.189-5.322-22.436-1.186-3.905-.328-7.017-.801-10.14-.896-5.083-.155-10.173-.063-15.26-.075"/><path fill="#cbc5e9" d="M155.934 267.388c9.989-.634 20.217-.956 30.437-1.436 2.06-.097 4.09-.793 6.693-1.436 1.993.437 3.428 1.098 5.097 1.995 5.454 3.315 10.676 6.393 15.597 9.714-1.849.746-3.384 1.632-4.946 1.684-5.811.19-11.649-.16-17.442.22-3.86.253-7.662 1.401-11.49 2.149-7.903-4.211-15.806-8.422-23.946-12.89"/><path fill="#b3a9de" d="M123.89 295.978v18.494c-6.158 0-11.911.185-17.632-.169-1.047-.064-2.707-2.268-2.798-3.574-.32-4.604-.08-9.248.463-14.324 7-.44 13.483-.434 19.966-.427"/><path fill="#c1bfe5" d="M180.103 280.526c3.605-.996 7.407-2.144 11.267-2.397 5.793-.38 11.63-.03 17.442-.22 1.562-.052 3.097-.938 5.302-1.659a167 167 0 0 1 18.02 8.672c-4.912.803-9.418 1.68-13.964 2.025-7.847.596-15.72.861-23.58 1.265-.35-.064-.7-.129-1.317-.21a344 344 0 0 1-13.17-7.476"/><path fill="#c3bae4" d="M123.94 295.515c-6.534.456-13.017.45-19.901.432-.533-1.711-.666-3.41-.882-5.529.084-3.848.253-7.278.989-10.984 7.014.006 13.461.29 19.908.573-.021 5.015-.043 10.03-.114 15.508"/><path fill="#cbc5e9" d="M124.228 279.692c-6.621.031-13.068-.252-19.93-.632.745-4.592 1.903-9.089 3.313-13.835 5.337-.238 10.427-.33 15.51-.175 3.123.095 6.235.568 9.778.986-3.95 3.578-7.267 7.756-8.671 13.656"/><path fill="#bdb9e3" d="M194.722 288.544c7.729-.736 15.6-1.001 23.448-1.597 4.546-.345 9.052-1.222 14.386-2.003 7.95 1.088 14.472-.608 21.01-4.152 8.425.512 16.406.853 24.387 1.194-3.722 4.652-7.445 9.304-11.981 14-16.239.036-31.665-.056-47.088.105-2.299.024-4.586 1.233-6.878 1.894-.815-.345-1.63-.69-2.915-1.304-.687-.43-.921-.558-1.173-.656-4.354-2.383-8.709-4.766-13.196-7.481"/><path fill="#b4b0e0" d="M212.158 298.302c2.14-.978 4.427-2.187 6.726-2.21 15.423-.162 30.849-.07 46.75-.052-6.097 6.123-14.163 8.752-23.228 10.096-11.047.467-20.848-2.447-30.248-7.834m-4.134-2.076c.146-.103.38.026.756.31.158.124-.294.174-.294.174s-.356-.283-.462-.484"/><path fill="#5843b6" d="M197.927 266.275a125 125 0 0 0-4.636-2.055c-10.65-5.738-20.818-11.711-31.358-16.932-4.647-2.302-10.05-3.077-15.525-4.654 3.281-4.478 7.066-8.775 10.639-13.241 2.127-2.66 3.92-5.586 5.907-8.737 25.18-.4 50.315-.455 75.748-.062-.342 1.399-.853 2.477-1.643 3.278-10.936 11.075-22.002 22.022-32.806 33.223-2.545 2.638-4.24 6.098-6.326 9.18"/><path fill="#5246b6" d="M282 224c7.415-6.97 14.83-13.94 22.687-20.495.55 5.429.655 10.443.752 15.746.512.42 1.032.553 1.998.762 3.146.061 5.848.046 8.814.227a767 767 0 0 1 6.851 6.494c-12.795 12.687-25.59 25.374-38.769 37.786-.475-1.035-.567-1.794-.593-3.012.02-4.819-.026-9.178.001-13.932.164-1.455.254-2.516.58-3.705.076-1.042-.083-1.956-.334-3.248-.666-3.127-1.24-5.876-1.607-8.75-.241-1.041-.69-1.958-1.308-3.088-.208-.566-.248-.919-.143-1.615A130 130 0 0 0 282 224"/><path fill="#e2e0f3" d="M351.136 225.663c5.327 4.062 10.66 3.832 17.712-4.347 2.867.672 5.192 1.398 7.568 1.643 5.557.574 11.137.917 16.708 1.353-3.079 3.5-6.157 6.999-10.009 10.632-10.596.108-20.42-.03-30.242.093-6.804.085-13.602.53-20.403.814-2.078-2.073-4.156-4.145-5.932-6.587 6.383-.67 12.48-.801 18.539-1.362 2.07-.192 4.042-1.462 6.06-2.24"/><path fill="#cac6e9" d="M283.673 261.967c.093.759.185 1.518.34 2.656a310 310 0 0 1-5.798 17.123c-8.243-.101-16.224-.442-24.423-1.23 5.691-5.448 8.67-11.92 9.826-19.532 6.988.332 13.522.657 20.055.983"/><path fill="#dad9f0" d="M332.48 236.198c6.79-.631 13.59-1.076 20.393-1.161 9.821-.123 19.646.015 29.959.066-.27 1.914-3.248 3.488-.198 6.214-2.116.768-4.375 1.585-6.643 1.61-11.977.132-23.957.158-35.932-.029-1.913-.03-3.806-1.322-5.854-2.361-.668-1.551-1.192-2.772-1.725-4.34"/><path fill="#e8e7f5" d="M351.03 225.402c-1.91 1.038-3.882 2.308-5.953 2.5-6.058.561-12.156.693-18.655 1.045-1.193-.62-1.97-1.294-3.034-2.09-2.481-2.222-4.677-4.32-6.919-6.932 1.65-.982 3.332-1.792 5.043-1.855 4.98-.186 9.984.132 14.952-.18 1.92-.12 3.768-1.402 5.649-2.155 1.233 1.242 2.467 2.484 4.002 4.342.999.754 1.696.891 2.392 1.029-.102.173-.205.346-.14.77.964 1.256 1.76 2.26 2.663 3.526"/><path fill="#f3f2fa" d="M341.97 215.439c-1.738 1.049-3.586 2.33-5.506 2.451-4.968.312-9.972-.006-14.952.18-1.71.063-3.394.873-5.307 1.658-2.92.33-5.622.346-8.936.127a22 22 0 0 1-1.82-.892c-.107-5.015-.213-10.03-.408-15.503-.175-5.36 3.584-3.747 6.557-4.255 13.1.118 22.845 5.832 30.371 16.234"/><path fill="#efedf8" d="M280.783 227.513c.04.353.081.706.272 1.593.18.96.21 1.388-.185 1.912-7.277.407-14.127.717-21.245.83-5.054-3.8-9.842-7.403-14.63-11.006 2.106-.614 4.186-1.64 6.32-1.768 7.551-.45 15.12-.592 23.076-.941 1.656 1.742 2.92 3.574 4.415 6a51 51 0 0 0 1.977 3.38"/><path fill="#5545b6" d="M280.929 227.17c-.727-.586-1.309-1.515-1.876-2.807.747-.364 1.48-.363 2.58-.363.059.942-.25 1.885-.704 3.17"/><path fill="#4f49b6" d="M348.204 221.006c-.393-.038-1.09-.175-1.897-.659.458-.044 1.025.257 1.897.659"/><path fill="#f3f2fa" d="M374.224 215.046c8.62-12.63 20.547-17.462 36.09-15.141 0 4.805 0 9.553-.527 14.789-12.205.442-23.884.397-35.563.352"/><path fill="#efedf8" d="M373.925 215.197c11.978-.106 23.657-.06 35.75-.105.507 1.358.6 2.805.72 4.683-5.773 1.108-12.32-1.292-16.962 4.359-5.88-.258-11.46-.601-17.017-1.175-2.376-.245-4.701-.97-7.268-1.803 1.347-2.153 2.913-3.98 4.777-5.959"/><path fill="#5545b6" d="M244.579 220.84a241 241 0 0 1 15.124 11.378 212 212 0 0 1 3.4 15.227c-.027 4.819.017 9.176.06 13.534-.7 7.616-3.68 14.089-9.815 19.366-6.32 3.99-12.841 5.687-20.405 4.434-6.339-2.93-12.255-5.838-18.528-8.771-5.578-3.104-10.8-6.182-16.254-9.497 1.852-3.318 3.547-6.778 6.092-9.416 10.804-11.2 21.87-22.148 32.806-33.223.79-.8 1.3-1.88 2.058-3.194 1.759-.19 3.402-.014 5.462.163"/><path fill="#e2e0f3" d="M263.174 246.984a20225 20225 0 0 1-3.203-14.568c6.772-.681 13.622-.991 21.096-1.267.775.311.936.583 1.105.85.575 2.748 1.15 5.497 1.736 8.994.068 1.502.122 2.254.177 3.006-.09 1.061-.18 2.122-.79 3.578-7.054.065-13.587-.264-20.121-.593"/><path fill="#d8d5ee" d="M263.103 247.445c6.605-.132 13.138.197 20.118.525.493 4.36.54 8.72.519 13.538-6.6.133-13.134-.192-20.122-.524-.498-4.363-.542-8.72-.515-13.539"/><path fill="#5545b6" d="M282.38 231.874c-.377-.142-.538-.414-.887-.822-.227-.558-.258-.985-.27-1.733.466.596.916 1.513 1.157 2.555m1.94 11.996c-.29-.623-.344-1.375-.32-2.498.238.543.397 1.457.32 2.499"/><path fill="#e8e7f5" d="M305.44 219.25c.411-.068.814.151 1.384.529-.353.025-.873-.107-1.385-.528"/></svg>