<svg xmlns="http://www.w3.org/2000/svg" width="368.709" height="368.709" fill="none" viewBox="0 0 368.709 368.709"><path fill="url(#a)" d="M366.824 183.085c14.482-32.46-57.11-123.149-125.506-160.932-43.11-29.27-88.034-25.248-97.132-12.397C124.22 37.96 210.302 61.86 267.872 89.747c-12.375 5.393-24.037 15.071-30.895 27.448-21.463-23.51-68.57-43.756-123.846-27.448-37.249 10.99-68.206 36.9-80.17 76.032a23.3 23.3 0 0 0-9.513-2.017C10.498 163.762 0 174.296 0 187.29s10.498 23.527 23.448 23.527c2.4 0 9.905-1.615 9.905-1.615l119.931.872c-47.963 76.345-85.867 87.505-85.867 100.732 0 13.226 36.268 9.642 49.885 4.712 65.19-23.6 135.207-97.156 147.222-118.33 50.455 6.316 92.858 7.063 102.3-14.102" style="fill:url(#a)" transform="translate(0 24.366)"/><path fill="url(#b)" fill-rule="evenodd" d="m267.867 89.751.01.004c2.668-1.055 2.236-5.009 1.503-8.115-1.684-7.137-30.742-35.928-58.029-48.823-37.182-17.572-64.562-16.666-68.607-8.567 7.574 15.575 42.687 30.2 79.358 45.471 15.646 6.516 31.575 13.15 45.771 20.027z" clip-rule="evenodd" style="fill:url(#b)" transform="translate(0 24.366)"/><path fill="url(#c)" fill-rule="evenodd" d="M220.683 246.511c-7.52-2.883-16.014-5.529-25.67-7.929 10.296-18.486 12.456-45.854 2.732-63.157-13.648-24.284-30.779-37.209-70.589-37.209-21.895 0-80.847 7.4-81.893 56.778-.11 5.181-.003 9.93.371 14.295l107.65.783c-14.513 23.101-28.105 40.234-40.004 53.261a8635 8635 0 0 1 36.902 9.59c10.27 2.685 19.671 5.144 29.511 7.663 14.843-10.85 28.796-22.68 40.99-34.075" clip-rule="evenodd" style="fill:url(#c)" transform="translate(0 24.366)"/><path fill="url(#d)" d="M31.523 204.216c4.398 37.51 25.644 52.21 69.058 56.56s68.317 1.432 101.471 4.458c27.691 2.528 52.415 16.686 61.587 11.794 8.254-4.404 3.636-20.312-7.409-30.519-14.318-13.23-34.134-22.428-69-25.693 6.948-19.089 5.001-45.855-5.79-60.417-15.605-21.056-44.406-30.575-80.859-26.416-38.084 4.345-74.576 23.158-69.058 70.233" style="fill:url(#d)" transform="translate(0 24.366)"/><defs><linearGradient id="a" x1="180.439" x2="435.479" y1="250.352" y2="322.433" gradientTransform="translate(-71.646 -96.012)" gradientUnits="userSpaceOnUse"><stop stop-color="#8697ff"/><stop offset="1" stop-color="#abb7ff"/></linearGradient><linearGradient id="b" x1="392.428" x2="207.876" y1="245.489" y2="61.108" gradientTransform="translate(-71.646 -96.012)" gradientUnits="userSpaceOnUse"><stop stop-color="#8697ff"/><stop offset="1" stop-color="#5156d8" stop-opacity="0"/></linearGradient><linearGradient id="c" x1="297.446" x2="120.465" y1="348.967" y2="247.558" gradientTransform="translate(-71.646 -96.012)" gradientUnits="userSpaceOnUse"><stop stop-color="#465eed"/><stop offset="1" stop-color="#8697ff" stop-opacity="0"/></linearGradient><linearGradient id="d" x1="195.658" x2="315.581" y1="248.443" y2="400.306" gradientTransform="translate(-71.646 -96.012)" gradientUnits="userSpaceOnUse"><stop stop-color="#8898ff"/><stop offset=".984" stop-color="#6277f1"/></linearGradient></defs></svg>