<svg xmlns="http://www.w3.org/2000/svg" width="120" height="120" fill="none" viewBox="0 0 120 120"><path fill="url(#a)" d="M0 54.4c0-19.042 0-28.563 3.706-35.836A34 34 0 0 1 18.564 3.706C25.837 0 35.358 0 54.4 0h11.2c19.042 0 28.563 0 35.836 3.706a34 34 0 0 1 14.858 14.858C120 25.837 120 35.358 120 54.4v11.2c0 19.042 0 28.563-3.706 35.836a34 34 0 0 1-14.858 14.858C94.163 120 84.642 120 65.6 120H54.4c-19.042 0-28.563 0-35.836-3.706a34 34 0 0 1-14.858-14.858C0 94.163 0 84.642 0 65.6z"/><path fill="url(#b)" d="M20 38h6c30.928 0 56 25.072 56 56v6h12a6 6 0 0 0 6-6c0-40.87-33.13-74-74-74a6 6 0 0 0-6 6z"/><path fill="url(#c)" d="M84 94h16a6 6 0 0 1-6 6H84z"/><path fill="url(#d)" d="M26 20v16h-6V26a6 6 0 0 1 6-6"/><path fill="url(#e)" d="M20 36h6c32.033 0 58 25.968 58 58v6H66v-6c0-22.091-17.909-40-40-40h-6z"/><path fill="url(#f)" d="M68 94h16v6H68z"/><path fill="url(#g)" d="M20 52V36h6v16z"/><path fill="url(#h)" d="M20 62a6 6 0 0 0 6 6c14.36 0 26 11.64 26 26a6 6 0 0 0 6 6h10v-6c0-23.196-18.804-42-42-42h-6z"/><path fill="url(#i)" d="M52 94h16v6H58a6 6 0 0 1-6-6"/><path fill="url(#j)" d="M26 68a6 6 0 0 1-6-6V52h6z"/><defs><radialGradient id="b" cx="0" cy="0" r="1" gradientTransform="matrix(0 -74 74 0 26 94)" gradientUnits="userSpaceOnUse"><stop offset=".77" stop-color="#ff4000"/><stop offset="1" stop-color="#8754c9"/></radialGradient><radialGradient id="e" cx="0" cy="0" r="1" gradientTransform="matrix(0 -58 58 0 26 94)" gradientUnits="userSpaceOnUse"><stop offset=".724" stop-color="#fff700"/><stop offset="1" stop-color="#ff9901"/></radialGradient><radialGradient id="h" cx="0" cy="0" r="1" gradientTransform="matrix(0 -42 42 0 26 94)" gradientUnits="userSpaceOnUse"><stop offset=".595" stop-color="#0af"/><stop offset="1" stop-color="#01da40"/></radialGradient><radialGradient id="i" cx="0" cy="0" r="1" gradientTransform="matrix(17 0 0 45.3333 51 97)" gradientUnits="userSpaceOnUse"><stop stop-color="#0af"/><stop offset="1" stop-color="#01da40"/></radialGradient><radialGradient id="j" cx="0" cy="0" r="1" gradientTransform="matrix(0 -17 322.37 0 23 69)" gradientUnits="userSpaceOnUse"><stop stop-color="#0af"/><stop offset="1" stop-color="#01da40"/></radialGradient><linearGradient id="a" x1="60" x2="60" y1="0" y2="120" gradientUnits="userSpaceOnUse"><stop stop-color="#174299"/><stop offset="1" stop-color="#001e59"/></linearGradient><linearGradient id="c" x1="83" x2="100" y1="97" y2="97" gradientUnits="userSpaceOnUse"><stop stop-color="#ff4000"/><stop offset="1" stop-color="#8754c9"/></linearGradient><linearGradient id="d" x1="23" x2="23" y1="20" y2="37" gradientUnits="userSpaceOnUse"><stop stop-color="#8754c9"/><stop offset="1" stop-color="#ff4000"/></linearGradient><linearGradient id="f" x1="68" x2="84" y1="97" y2="97" gradientUnits="userSpaceOnUse"><stop stop-color="#fff700"/><stop offset="1" stop-color="#ff9901"/></linearGradient><linearGradient id="g" x1="23" x2="23" y1="52" y2="36" gradientUnits="userSpaceOnUse"><stop stop-color="#fff700"/><stop offset="1" stop-color="#ff9901"/></linearGradient></defs></svg>