<svg xmlns="http://www.w3.org/2000/svg" width="400" height="400"><path fill="#13fe7f" d="M0 0h400v400H0z"/><path fill="#111211" d="m134.566 65.733 3.432-.026 3.753.002 3.963-.02a2353 2353 0 0 1 10.754-.024q3.362-.001 6.722-.01 11.73-.028 23.46-.026c7.285.002 14.57-.02 21.854-.051q9.387-.038 18.775-.036c3.736 0 7.471-.005 11.207-.026 4.168-.023 8.336-.014 12.504-.002l3.74-.034c7.715.057 11.24.859 16.93 6.028 4.741 6.498 4.056 14.352 3.937 22.037-.034 2.45-.02 4.896-.001 7.346q-.01 2.367-.03 4.734l.015 2.185c-.123 5.43-1.607 9.634-4.581 14.19-4.208 4.003-7.384 5.122-13.104 5.138-1.055.005-2.111.01-3.199.017l-3.509.003-3.696.015q-3.98.016-7.96.026c-4.199.01-8.397.031-12.595.053-11.939.062-23.877.116-35.816.15q-9.89.027-19.78.087-5.232.033-10.464.04c-3.892.002-7.785.027-11.677.054l-3.49-.009c-5.62.059-9.914.144-14.71 3.426-3.88 4.196-5.116 7.28-5.158 12.927l-.03 3.035-.023 3.276-.086 6.862q-.063 5.41-.104 10.823c-.028 3.48-.074 6.96-.122 10.44l-.01 3.258c-.09 5.519-.294 9.648-3.467 14.379-5.574 5.281-10.648 6.31-18.152 6.3l-2.357.014q-2.46.008-4.92.002a668 668 0 0 0-7.49.045q-2.4.004-4.796.002l-2.245.028c-6.216-.055-10.083-1.745-14.79-5.703-5.223-6.24-4.557-13.352-4.55-21.094l-.014-3.63q-.008-3.793-.002-7.586c.003-3.864-.02-7.728-.045-11.593q-.004-3.69-.002-7.379l-.028-3.495c.038-6.699.37-11.636 5.11-16.774l1.781-1.45 1.781-1.488c3.614-2.521 7.03-2.335 11.293-2.375l3.963-.072a599 599 0 0 1 6.207-.078c11.306.019 11.306.019 21.256-4.674 2.785-4.482 3.376-7.922 3.406-13.156l.033-2.016c.034-2.11.05-4.218.061-6.328q.024-4.172.094-8.344l.021-3.724c.641-5.717 3.031-9.738 7.385-13.432 3.261-2 5.766-2.254 9.566-2.267M294.09 201.469l2.614-.012q2.727-.004 5.454.022c2.768.02 5.533 0 8.301-.026q2.66.004 5.318.016l2.485-.025c6.994.113 11.104 1.912 16.14 6.967 2.482 5.575 2.188 10.983 2.164 17.019l.02 3.952q.014 4.133-.01 8.266a707 707 0 0 0 .042 10.537c.027 3.373.017 6.746.01 10.12l.041 3.795c-.075 7.105-.534 12.64-5.669 17.9-4.35 2.996-7.872 3.368-13.086 3.371l-4.07.053q-3.163.015-6.325.012c-11.54-.366-11.54-.366-21.519 4.564-5.816 6.398-4.534 16.048-4.5 24.125.012 2.857-.002 5.713-.031 8.57l.013 3.813c-.588 4.256-1.681 6.243-4.482 9.492-6.37 4.808-12.214 4.57-20 4.518l-3.935.02c-3.545.019-7.09.012-10.636 0-3.718-.01-7.436-.001-11.154.005q-9.363.01-18.724-.022c-7.208-.021-14.416-.014-21.624.008a4027 4027 0 0 1-18.597.01c-3.698-.006-7.395-.007-11.093.006a1415 1415 0 0 1-12.366-.027l-3.698.024c-6.35-.064-10.385-.197-15.173-4.542-6.568-7.1-5.286-15.544-5.35-24.67a405 405 0 0 0-.082-5.138c-.38-17.134-.38-17.134 3.863-22.808 3.753-3.31 6.87-4.758 11.875-4.77l3.182-.029 3.459.014 3.668-.02q3.94-.022 7.88-.02c4.156.002 8.313-.018 12.47-.04 8.074-.041 16.148-.06 24.222-.077q15.412-.032 30.823-.107 6.192-.03 12.386-.03c3.176-.004 6.352-.02 9.528-.034l3.452.008c7.817-.05 13.781-.594 19.624-6.279 3.808-5.651 3.408-11.189 3.371-17.75l.053-6.969q.014-5.47.012-10.941c.003-3.53.03-7.06.06-10.59l-.025-3.296c.059-5.959.281-9.894 4.529-14.454 4.916-4.293 8.858-4.593 15.09-4.531m-104.477-30.707 2.567-.025q2.69-.02 5.38-.032c2.732-.017 5.463-.061 8.196-.105q2.616-.015 5.232-.026l2.463-.053c5.333.02 8.306.966 12.549 4.479 4.614 5.237 5.167 8.462 5.203 15.297l.017 2.504q.014 2.628.02 5.256c.01 2.669.04 5.337.072 8.006q.01 2.555.016 5.109l.038 2.406c-.025 6.261-1.593 10.255-5.616 15.172-6.682 5.467-15.325 4.59-23.51 4.566-2.169-.003-4.336.02-6.504.045-15.996.075-15.996.075-21.24-4.742-4.805-5.452-5.817-9.695-5.867-16.822-.01-.797-.018-1.593-.027-2.414a789 789 0 0 1-.028-5.053 507 507 0 0 0-.111-7.67c-.15-15.222-.15-15.222 5.537-21.66 4.715-4.299 9.502-4.183 15.613-4.238"/><path fill="#051b13" d="m134.566 65.733 3.432-.026 3.753.002 3.963-.02a2353 2353 0 0 1 10.754-.024q3.362-.001 6.722-.01 11.73-.028 23.46-.026c7.285.002 14.57-.02 21.854-.051q9.387-.038 18.775-.036c3.736 0 7.471-.005 11.207-.026 4.168-.023 8.336-.014 12.504-.002l3.74-.034c7.724.057 11.225.871 16.934 6.021 4.79 6.525 3.98 14.49 3.823 22.209a420 420 0 0 0-.067 7.444q-.02 2.382-.049 4.764l-.016 2.232c-.093 4.036-.574 7.212-2.355 10.85-1.308-3.924-1.084-7.633-1.027-11.719l.037-5.261q.037-4.148.086-8.296c.03-2.668.048-5.337.064-8.005l.04-2.51c.025-4.896.025-4.896-2.2-9.209l-3-1-1-3-2-1v2h-5l-1-2q-24.096-.07-48.192-.104-11.189-.014-22.377-.047-9.753-.03-19.506-.037-5.163-.003-10.326-.023c-3.845-.017-7.69-.017-11.535-.016l-3.448-.022c-7.024.019-12.373.888-18.616 4.249v3l-3 1-.028 2.826q-.068 5.231-.18 10.461-.042 2.257-.063 4.513a477 477 0 0 1-.12 6.516l-.063 3.952c-.67 4.578-1.94 6.934-4.546 10.732-2.75 1.438-2.75 1.438-5 2l3.809-4.395c2.64-3.558 2.342-7.206 2.402-11.468l.086-4.127q.063-3.239.104-6.478c.028-2.09.074-4.18.122-6.27l.06-3.783c.687-5.733 3.041-9.766 7.417-13.479 3.261-2 5.766-2.254 9.566-2.267"/><path fill="#3fe28a" d="M179 169a1593 1593 0 0 1 17.505-.275 641 641 0 0 0 5.947-.102c2.86-.061 5.719-.09 8.58-.111l2.658-.078c6.182-.003 10.797 1.152 15.31 5.566 3.903 5.747 4.627 11.732 4.715 18.523l.072 2.63q.066 2.726.107 5.451c.044 2.786.125 5.568.21 8.353q.059 2.658.11 5.316l.076 2.52c.055 5.833.055 5.833-1.778 7.816L231 226l-.5 2.125L230 230l-3 1-2-1-1 3c-4.581 2.102-8.906 2.256-13.855 2.117a665 665 0 0 1-6.947-.174 505 505 0 0 0-7.083-.138c-9.58-.218-17.425-1.46-26.115-5.805a449 449 0 0 1-1-6l-2-3a107 107 0 0 1-.23-8.21v-2.44a931 931 0 0 1 .024-5.11c.018-2.598.02-5.196.02-7.795l.018-4.968.003-2.346c.034-3.83.24-7.407 1.165-11.131h3l-.25-2.312c.25-2.688.25-2.688 2-4.563 2.25-1.125 2.25-1.125 4.5-.812L179 171zm-6.25 7.438c-3.42 5.007-4.079 8.704-4.121 14.765-.01.797-.018 1.593-.027 2.414a789 789 0 0 0-.028 5.053 507 507 0 0 1-.111 7.67c-.351 10.785-.351 10.785 4.166 20.276L174 228l1.229 1.563c6.082 4.933 15.139 3.775 22.531 3.753 2.169-.003 4.336.02 6.504.045 11.652.159 11.652.159 21.795-5.08l1.379-1.781 1.433-1.781c2.677-4.075 2.324-8.427 2.367-13.114l.025-2.5q.02-2.618.032-5.237c.017-2.66.061-5.32.105-7.98q.015-2.547.026-5.095l.053-2.396c-.02-5.272-1.021-8.199-4.479-12.397-5.3-4.67-8.597-5.167-15.516-5.203l-2.571-.017q-2.699-.014-5.397-.02c-2.741-.01-5.482-.04-8.223-.072q-2.623-.01-5.246-.016l-2.472-.038c-6.15.024-10.495 1.113-14.825 5.804"/><path fill="#2ebf72" d="M274 212h1c.127 7.259.215 14.518.275 21.777q.038 3.702.102 7.403c.061 3.555.09 7.108.111 10.664l.078 3.321c.003 6.932-1.038 11.485-5.566 16.835-4.714 4.597-8.909 5.122-15.306 5.131l-3.182.012-3.459-.001-3.668.01a5069 5069 0 0 1-7.88.017q-6.234.01-12.47.041l-6.436.029c-9.672.042-19.343.075-29.015.087q-9.798.011-19.594.07c-3.453.019-6.906.031-10.359.026-3.852-.005-7.703.02-11.555.048l-3.452-.02c-6.151.073-10.01.311-14.624 4.55-1.886 3.1-1.886 3.1-3 6-.934-3.01-1.044-3.867 0-7l2-1a101 101 0 0 0 2-6h2l2 2 1-1a85 85 0 0 1 4.98-.12l3.267-.004 3.617.01h3.783q5.151.001 10.301.013 5.377.007 10.755.008 10.189.005 20.378.021 11.597.016 23.194.022 23.863.016 47.725.05v-2h4v-2h2v-3h2v-3h2l-.007-1.923q-.032-9.878-.048-19.757-.008-3.69-.02-7.38c-.013-3.53-.018-7.059-.023-10.588l-.015-3.35v-3.093l-.007-2.732C273 214 273 214 274 212"/><path fill="#28c76e" d="m133.508 63.74 3.394-.022 3.71.007 3.919-.015c3.545-.014 7.09-.014 10.637-.012q4.446 0 8.893-.008 10.498-.016 20.997-.006c7.206.006 14.412-.006 21.618-.027q9.295-.027 18.59-.02c3.696.001 7.392-.001 11.088-.015 4.13-.015 8.258-.006 12.387.006l3.68-.023c6.425.04 12.846.153 18.579 3.395 2.263 2.645 4 5.413 4 9h2v40h-2l-.313 2.312c-.73 2.859-1.457 3.845-3.687 5.688l-2-1c.96-1.392.96-1.392 1.937-2.813 4.234-6.542 3.359-13.823 3.413-21.355q.025-2.506.082-5.012c.606-11.824.606-11.824-3.863-22.42-3.89-3.47-7.06-4.775-12.262-4.774l-3.44-.021-3.748.023-3.968-.011c-3.585-.01-7.169 0-10.754.013-3.754.011-7.509.007-11.264.005q-9.456 0-18.914.029c-7.285.021-14.57.024-21.855.018q-10.52-.007-21.04.011-4.473.007-8.947.004c-4.165-.002-8.33.012-12.496.028l-3.747-.007-3.441.021-2.983.007c-2.897.272-5.077 1.046-7.71 2.254v-3c3.275-1.945 5.722-2.253 9.508-2.26"/><path fill="#00280d" d="M264 277c-5.763 2.485-11.234 2.262-17.39 2.211l-3.45-.004c-3.757-.006-7.513-.027-11.27-.047l-7.829-.016q-9.244-.018-18.49-.057-17.554-.07-35.11-.104-5.775-.016-11.55-.045l-7.039-.02-3.265-.02-2.965-.005-2.585-.01c-2.122-.015-2.122-.015-4.057 1.117-1.666.04-3.334.044-5 0v3l-2.437.875c-2.696.858-2.696.858-3.563 3.125a65 65 0 0 0-.114 4.266v2.67l.016 2.884.005 2.951c.005 3.118.018 6.236.03 9.354q.009 3.165.014 6.332.017 7.771.049 15.543c-5.098-5.098-3.302-14.88-3.35-21.67a405 405 0 0 0-.082-5.138c-.38-17.134-.38-17.134 3.863-22.808 3.754-3.311 6.883-4.757 11.889-4.79l3.19-.042h3.469l3.677-.036c3.32-.03 6.64-.045 9.96-.055 3.478-.013 6.955-.042 10.433-.07a5487 5487 0 0 1 17.514-.1c7.491-.031 14.982-.081 22.474-.137q9.667-.07 19.334-.126l6.21-.04c3.856-.026 7.713-.042 11.57-.057l3.474-.025 3.182-.008 2.763-.014c2.287.11 4.24.47 6.43 1.116"/><path fill="#32da81" d="M329 199a257 257 0 0 1 4 5l2.105 2.3c3.394 5.186 2.489 11.825 2.461 17.786q.009 2.078.02 4.154.014 4.345-.01 8.69c-.017 3.694.007 7.387.042 11.081.022 2.859.02 5.717.012 8.576-.001 2.019.019 4.037.04 6.055-.074 7.26-.372 13.01-5.67 18.358-4.522 3.771-8.922 4.496-14.727 4.504l-2.153.028a503 503 0 0 1-6.745.03c-2.256.004-4.51.014-6.766.041-2.041.025-4.082.027-6.123.028-3.697.391-5.592 1.07-8.486 3.369l-1 3-3 1c1.358-4.888 3.67-6.526 8-9 3.452-1.15 6.188-1.143 9.828-1.176l4.113-.072c2.15-.035 4.3-.064 6.451-.078 11.09.22 11.09.22 20.608-4.674 2.478-4.169 3.379-7.265 3.404-12.094.02-1.772.02-1.772.038-3.58l-.008-3.826.015-3.967q.013-4.146-.003-8.29c-.011-3.532.009-7.061.038-10.592.023-3.384.016-6.767.012-10.151l.034-3.826c.045-8.708.045-8.708-4.53-15.674-4.904-3.382-9.377-3.454-15.125-3.434l-2.622-.015a667 667 0 0 0-5.466.003 576 576 0 0 1-8.334-.052q-2.664-.003-5.328.002l-2.5-.034c-5.35.064-8.374 1-12.625 4.53-2.323 2.61-2.323 2.61-4 5 .5-4.378 1.882-6.882 5-10h4v-2l1.664.007q8.54.032 17.08.048 3.19.008 6.382.02 4.575.018 9.151.023l2.901.015h2.67l2.361.007c1.815.076 1.815.076 2.791-1.12"/><path fill="#2fe17c" d="m126 329 2.188 2.313c4.38 4.186 7.462 6.065 13.576 6.048l3.489.012 3.799-.032h4.022c3.632.002 7.263-.016 10.895-.037 3.799-.019 7.597-.02 11.395-.024 7.19-.01 14.379-.034 21.568-.064 8.186-.033 16.372-.05 24.559-.065 16.836-.031 33.673-.084 50.509-.151v2h-4v2q-25.413-.16-50.826-.34-11.8-.083-23.601-.157-10.29-.065-20.577-.14-5.445-.04-10.89-.072a6152 6152 0 0 1-12.172-.086l-3.625-.017c-5.86-.052-11.515-.304-17.309-1.188l-.375-2.437L128 334l-2-1z"/><path fill="#3ee48b" d="m267 124 2 1c-2.233 2.534-4.127 3.867-7.495 4.38-3.258.14-6.498.157-9.76.134l-3.765.022q-4.046.02-8.091.011c-4.266-.01-8.53.007-12.796.028-6.745.03-13.49.042-20.236.045q-18.124.011-36.248.085-6.36.024-12.719.019c-3.255 0-6.51.011-9.765.02l-3.56-.012-3.258.016-2.83.001c-2.638.267-4.253.826-6.477 2.251l-1 2-3-1c4.82-4.178 7.558-6.117 14.117-6.145l3.208-.02 3.519-.009 3.705-.02q3.99-.021 7.98-.036c4.207-.015 8.413-.04 12.62-.065q17.94-.105 35.881-.182 9.909-.042 19.818-.106 6.27-.04 12.543-.056c3.212-.012 6.424-.036 9.636-.058l3.513-.002 3.216-.03 2.792-.012c2.59-.274 4.163-1.087 6.452-2.259"/><path fill="#02491d" d="m82.418 119.902 3.799.01 3.97.025q2.004.009 4.006.014 4.904.018 9.807.049v1H77v2h-5v2h-2l-.25 2.375C69 130 69 130 66.953 131.165L65 132q.056 11.188.184 22.376c.04 3.464.072 6.927.087 10.391.018 3.987.068 7.973.12 11.96l.003 3.75c.137 8.023.903 11.82 6.606 17.523 4.275 2.22 8.426 2.34 13.145 2.414l2.332.059c2.445.06 4.89.106 7.335.152q2.496.057 4.99.117 6.099.142 12.198.258v1q-7.526.111-15.051.165-2.557.022-5.116.061a775 775 0 0 1-7.372.067c-.757.015-1.513.03-2.292.047-6.168.002-10.132-1.627-14.919-5.653-5.223-6.239-4.557-13.35-4.55-21.093l-.014-3.63q-.008-3.793-.002-7.586c.003-3.864-.02-7.728-.045-11.593q-.004-3.69-.002-7.379l-.028-3.495c.038-6.699.37-11.636 5.11-16.774l1.781-1.45 1.781-1.488c3.59-2.505 6.904-2.316 11.137-2.297"/><path fill="#00290b" d="m128 131 2 1-1.969 2.773c-2.887 5.085-2.579 10.141-2.535 15.856l-.028 3.357c-.029 3.526-.032 7.05-.03 10.577-.004 3.529-.014 7.058-.041 10.587q-.026 3.287-.007 6.574c-.038 5.498-.212 9.567-3.39 14.276-5.258 4.745-8.606 5.141-15.508 5.098l-2.547-.005c-2.69-.005-5.38-.018-8.07-.03q-2.732-.008-5.465-.014-6.705-.017-13.41-.049l-1-2a2533 2533 0 0 0 14.624.11q2.485.016 4.97.04c2.388.025 4.776.037 7.164.045l2.226.032c4.41 0 7.92-.617 12.016-2.227l3-1v-5h2l.025-2.03c.085-6.959.185-13.918.292-20.876q.059-3.9.105-7.796c.045-3.731.103-7.462.164-11.193l.035-3.532.06-3.275.04-2.887C123 137 123 137 125 134h2z"/><path fill="#16fc7c" d="M280 328h1l1 8c-3.75 1.125-3.75 1.125-6 0l-.937 2.438C274 341 274 341 273 342c-1.658.096-3.32.122-4.98.12l-3.267.004-3.617-.01h-3.783q-5.151-.001-10.301-.013c-3.585-.006-7.17-.006-10.755-.008q-10.189-.005-20.378-.021-11.597-.016-23.194-.022-23.863-.016-47.725-.05v-1h123v-2h4v-3l2.313-1.375c3.048-1.843 4.02-3.54 5.687-6.625"/><path fill="#1df580" d="m65 194 2 1v2c1.323.686 2.66 1.348 4 2l2.137 1.054c3.68 1.216 7.15 1.233 10.98 1.212l2.35.005q2.453.002 4.907-.01c2.486-.01 4.972 0 7.458.012q2.392 0 4.785-.007l2.23.012c4.735-.043 8.652-.79 13.153-2.278l-1 3c-4.67 2.14-9.233 2.308-14.285 2.344l-2.36.044c-3.309.062-6.618.102-9.927.144-2.425.034-4.85.079-7.276.124l-2.25.016c-4.062.078-7.243.53-10.902 2.328v-2l-7-1z"/><path fill="#01471b" d="M169 183h1l.028 2.978c.04 3.685.106 7.37.18 11.054q.042 2.38.063 4.763c-.245 12.787-.245 12.787 4.729 24.205 3.075 1.67 3.075 1.67 6 2v2q7.74.037 15.479.055 2.63.008 5.26.02c2.527.013 5.054.018 7.581.023l2.359.015c4.221 0 8.162-.277 12.321-1.113-1 2-1 2-4.1 3.106-5.788 1.505-11.723 1.228-17.66 1.21-2.169-.003-4.336.02-6.504.045-15.996.075-15.996.075-21.24-4.742-4.928-5.592-5.787-9.8-5.691-17.103l.008-2.472c.011-2.598.037-5.196.062-7.794q.016-2.647.027-5.293.035-6.48.098-12.957"/><path fill="#2eee87" d="m67 122 3 1-1.059 1.426-1.379 1.886-1.37 1.864c-2.195 3.36-2.318 6.217-2.321 10.118l-.01 3.278.006 3.541-.003 3.644q0 3.819.006 7.638c.005 3.891 0 7.782-.007 11.673q0 3.71.004 7.42l-.006 3.524.01 3.306.002 2.893c.136 2.994.58 5.844 1.127 8.789h-2c-1.51-4.053-2.252-7.422-2.259-11.742l-.019-3.348.012-3.57-.005-3.705q-.002-3.87.01-7.739c.011-3.948 0-7.895-.012-11.843q0-3.763.007-7.526l-.012-3.576.02-3.338c0-.966.002-1.931.004-2.926.276-2.922.941-5.068 2.254-7.687l2-1v-3z"/><path fill="#3bd280" d="m190.445 168.629 2.557-.027q2.685-.022 5.372-.028c2.72-.011 5.438-.06 8.157-.111q2.614-.015 5.227-.022l2.44-.059c5.986.047 10.346 1.515 14.802 5.618 3.221 5.283 3.41 10.002 3.293 15.996l-.013 2.526a966 966 0 0 1-.093 7.916q-.022 2.697-.04 5.396c-.033 4.389-.085 8.777-.147 13.166h-1l-.028-3.301c-.04-4.06-.106-8.119-.18-12.178a656 656 0 0 1-.063-5.26 641 641 0 0 0-.12-7.581l-.003-2.359c-.139-5.198-1.097-8.256-4.606-12.321-4.958-4.345-9.042-4.6-15.336-4.61-.88-.016-1.759-.032-2.665-.05-2.791-.048-5.582-.07-8.374-.09q-2.85-.042-5.7-.09c-4.641-.074-9.283-.123-13.925-.16 3.008-3.008 6.408-2.345 10.445-2.371"/><path fill="#03290c" d="m189.613 170.762 2.567-.025q2.69-.02 5.38-.032c2.732-.017 5.463-.061 8.196-.105q2.616-.015 5.232-.026l2.463-.053c6.28.024 9.783 1.897 14.424 6.229L229 178l-1 3-4.395-3.809c-1.712-1.4-1.712-1.4-4.605-2.191v-2l-2.059.516c-3.438.566-6.52.427-10 .222q-2.053-.102-4.107-.2a606 606 0 0 1-6.411-.358 418 418 0 0 0-6.232-.317l-3.743-.21c-4.137.416-6.155 1.896-9.448 4.347h-2l-1 2-2-2c5.965-5.17 9.642-6.166 17.613-6.238"/><path fill="#091306" d="M266 123v2c-6.504.986-12.802 1.104-19.373 1.022l-3.373-.03c-3.658-.032-7.315-.073-10.973-.113l-7.633-.072q-9-.085-17.998-.18-10.252-.107-20.503-.203Q165.073 125.22 144 125v-1a1041412 1041412 0 0 1 93.883-.815l10.787-.093 3.222-.029c4.703-.04 9.405-.075 14.108-.063"/><path fill="#01270f" d="M278 207c1 3 1 3 0 6a79 79 0 0 0-.174 4.512l-.04 2.763-.032 2.983-.1 6.273q-.071 4.938-.13 9.874c-.04 3.18-.092 6.36-.145 9.54l-.026 2.946C277.071 267.7 277.071 267.7 272 273l-2-2 1.969-2.757c2.925-5.152 2.579-10.339 2.535-16.126l.028-3.431c.029-3.604.032-7.207.03-10.811.004-3.61.014-7.221.041-10.832q.026-3.364.007-6.728c.063-9.319.063-9.319 3.39-13.315"/><path fill="#3bdf83" d="M127 135c.979 3.25 1.092 6.117 1.022 9.503l-.061 3.336-.082 3.583-.072 3.682q-.116 5.823-.245 11.646l-.158 7.895Q127.21 184.322 127 194l-4 1 .49-2.176c.494-2.734.654-5.236.684-8.01l.04-3.054.032-3.264.1-6.869q.072-5.405.13-10.81c.04-3.482.092-6.964.145-10.446l.026-3.27.05-3.045.031-2.672c.29-2.537.995-4.192 2.272-6.384"/><path fill="#2ee683" d="M232 183h1q.325 8.462.592 16.925.095 2.88.207 5.759c.106 2.757.193 5.515.275 8.273l.113 2.604.062 2.427.074 2.133c-.42 2.449-1.521 3.236-3.323 4.879l-.5 2.125L230 230l-3 1-2-1-1 3c-4.75 2.201-8.88 2.177-14 2v-1h6v-2l3.688-1.125c5.25-1.961 7.36-4.92 10.419-9.55 1.33-3.463 1.252-6.928 1.307-10.59l.059-2.405c.06-2.526.106-5.053.152-7.58l.117-5.148q.142-6.3.258-12.602"/><path fill="#014010" d="M229 180c2.58 2.58 2.258 4.348 2.304 7.866l-.003 2.43.013 2.505q.008 2.628.002 5.256c-.003 2.669.02 5.337.045 8.006q.004 2.555.002 5.109l.028 2.406c-.04 4.874-.726 8.185-3.391 12.422-2.187 1.875-2.187 1.875-4 3l.875-1.687c2.32-4.768 3.375-8.319 3.355-13.68l-.005-3.684-.037-3.824-.002-3.8c-.028-5.867-.109-11.551-1.186-17.325h1z"/><path fill="#013211" d="M123 69h2l-1 7-3 1-.028 2.826q-.068 5.231-.18 10.461-.042 2.256-.063 4.513a477 477 0 0 1-.12 6.516l-.063 3.952c-.67 4.578-1.94 6.934-4.546 10.732-2.75 1.438-2.75 1.438-5 2l3.809-4.395c2.64-3.558 2.342-7.206 2.402-11.468l.086-4.127q.063-3.239.104-6.478c.028-2.09.074-4.18.122-6.27l.06-3.783c.598-4.99 2.666-8.352 5.417-12.479"/><path fill="#044c21" d="M267 68c4.131 2.903 6.117 5.317 8 10 .27 2.841.399 5.451.363 8.285l.002 2.36a563 563 0 0 1-.029 4.914c-.023 2.5-.02 4.998-.014 7.498q-.007 2.396-.021 4.79l.003 2.252c-.056 4.066-.499 7.24-2.304 10.901-1.308-3.924-1.084-7.633-1.027-11.719l.037-5.261q.037-4.148.086-8.296c.03-2.668.048-5.337.064-8.005l.04-2.51c.025-4.896.025-4.896-2.2-9.209l-3-1z"/><path fill="#022e0e" d="M328 276h5c-1.032 2.991-1.895 3.936-4.64 5.61-3.74 1.547-6.447 1.787-10.481 1.831l-2.01.04c-2.102.041-4.204.063-6.307.082q-3.148.034-6.296.091c-1.907.035-3.814.056-5.72.075-3.826.292-6.908 1.1-10.546 2.271 3.579-4.146 7.761-4.345 13-5 4.873-.35 9.741-.504 14.625-.625l3.91-.117q4.733-.141 9.465-.258z"/><path fill="#002e0c" d="M332 207c3.455 3.728 4.5 5.94 4.502 11.012l.028 3.6-.034 3.86.005 3.986q0 4.167-.034 8.334a922 922 0 0 0-.013 10.67c.008 3.4-.007 6.799-.02 10.198l.008 3.867-.038 3.59-.016 3.158c-.437 3.068-1.334 4.451-3.388 6.725q-.062-3.5 0-7l1-1a84 84 0 0 0 .145-4.931l.02-3.186.003-3.469.01-3.539q.007-3.714.007-7.43c.002-3.797.02-7.593.04-11.39q.005-3.601.005-7.203l.022-3.457-.01-3.205.005-2.824c-.09-2.634-.09-2.634-2.247-5.366-.125-2.687-.125-2.687 0-5"/><path fill="#2dea84" d="m179 169 3 1c-1 2-1 2-3.687 3.063-4.795 2.804-7.19 5.783-9.313 10.937-1.102 6.104-.887 12.383-.875 18.563q-.027 2.54-.062 5.08c-.052 4.12-.067 8.237-.063 12.357h-1q-.037-7.767-.055-15.533-.008-2.64-.02-5.282a2482 2482 0 0 1-.023-7.603l-.015-2.374c0-3.864.169-7.453 1.113-11.208h3l-.25-2.312c.25-2.688.25-2.688 2-4.563 2.25-1.125 2.25-1.125 4.5-.812L179 171z"/><path fill="#3ce188" d="M123 288h2l1 41-3-2a79 79 0 0 1-.293-8.727l.013-2.614c.017-2.762.054-5.523.093-8.284q.022-2.805.04-5.61.053-6.882.147-13.765"/><path fill="#01300d" d="m284 286 3 1-1.937 2.813c-3.015 4.658-3.191 7.808-3.239 13.269l-.072 4.264a692 692 0 0 0-.078 6.694c-.015 2.16-.056 4.32-.1 6.48l-.044 3.909c-.617 4.157-1.89 6.335-4.53 9.571-2.75 1.375-2.75 1.375-5 2l1-3h3c3.482-8.984 3.444-17.672 3.436-27.204.025-13.85.025-13.85 4.564-19.796"/><path fill="#061810" d="M77 121h27v2H78v3l-4 1v-3l-2-1h5z"/><path fill="#41e48a" d="M114 72h7l-.983 2.555c-1.09 3.694-1.272 6.722-1.29 10.566l-.063 4.084q-.035 3.175-.045 6.352c-.068 14.577-.068 14.577-4.619 20.443h-1v-5h2c1.202-3.605 1.23-6.973 1.316-10.73l.063-2.274q.097-3.593.183-7.183l.131-4.874q.16-5.97.307-11.939h-3z"/><path fill="#38e185" d="m70 199 2.487.983c3.976 1.15 7.63 1.305 11.728 1.283l2.345.005q2.445.002 4.889-.01c2.478-.011 4.954 0 7.432.012q2.385 0 4.771-.007l2.22.012c4.726-.043 8.636-.795 13.128-2.278l-1 3c-2.78.927-4.42 1.122-7.288 1.114h-2.608l-2.803-.016-2.88-.005c-3.036-.005-6.072-.018-9.109-.03q-3.086-.008-6.173-.014-7.57-.017-15.139-.049z"/><path fill="#002d0a" d="m294.336 201.61 2.665.017c2.792.022 5.582.072 8.374.123q2.85.03 5.7.055c4.642.044 9.283.113 13.925.195v1l-3.194.044c-3.934.058-7.868.136-11.802.218a838 838 0 0 1-5.095.084c-2.45.034-4.9.087-7.35.142l-2.277.02c-3.775.103-6.678.498-10.13 2.086C282 207 282 207 279 206c5.118-4.184 8.842-4.55 15.336-4.39"/><path fill="#25f381" d="m274 74 1 2h2v40l-2-1 .016-3.118q.026-5.752.039-11.506.008-2.485.02-4.97c.013-2.388.018-4.776.023-7.164l.015-2.226c0-4.114-.31-7.98-1.113-12.016"/><path fill="#24e87f" d="M280 328h1l1 8c-3.75 1.125-3.75 1.125-6 0l-.875 2.438C274 341 274 341 272 342c-.312-2.812-.312-2.812 0-6 2.313-1.562 2.313-1.562 5-3 1.735-2.584 1.735-2.584 3-5"/><path fill="#20f782" d="m177 232 2.594.48c3.33.508 6.533.724 9.898.836l3.633.127 3.75.12 3.82.13q4.653.159 9.305.307v1l-34 1z"/><path fill="#02220a" d="M229 180h1v36h-1l-.076-2.092q-.177-4.736-.362-9.47l-.119-3.292c-.215-5.45-.525-10.767-1.443-16.146h1z"/><path fill="#1ff77f" d="M116 80h1v28l-2 1c-.854-4.745-.807-8.29 0-13 .25-2.788.408-5.58.563-8.375l.13-2.23q.157-2.698.307-5.395"/><path fill="#30db80" d="M256 64c10.575.893 10.575.893 15 3 1.938 2.375 1.938 2.375 3 5-.312 2.313-.312 2.313-1 4l-1.5-2.75c-3.18-4.786-8.083-6.646-13.5-8l-2-.25z"/><path fill="#08160b" d="m171 182 2 2c-.375 2.125-.375 2.125-1 4h2l-2 20h-1z"/><path fill="#29e881" d="M130 274h2c.813 2.188.813 2.188 1 5-2.25 2.563-2.25 2.563-5 5a97 97 0 0 0-3 4c.256-2.343.593-4.678 1-7l2-1a101 101 0 0 0 2-6"/><path fill="#23f684" d="M233 215h1c.371 7.548.371 7.548-1.437 9.75L231 226l-.5 2.125L230 230l-3 1-1-2h2c1.922-4.583 3.457-9.28 5-14"/><path fill="#053312" d="m181 171 1 3c-4.75 3-4.75 3-7 3l-1 2-2-2c5.625-4.875 5.625-4.875 9-6"/><path fill="#2fe480" d="m126 329 2.188 2.25c2.498 2.443 5.048 4.618 7.812 6.75l-7 1-.375-2.437L128 334l-2-1z"/><path fill="#35dc83" d="m271 266 2 2c-4.625 5.75-4.625 5.75-8 8l-3-1 1-2h4v-2h2v-3h2z"/><path fill="#093217" d="M122 185h1c1.567 6.99 1.567 6.99-.047 9.867-1.39 1.633-1.39 1.633-3.953 4.133l-1-3h2v-5h2z"/><path fill="#22f585" d="m133 130 3 1c-.75 1.938-.75 1.938-2 4l-4 1c-1.284 1.984-1.284 1.984-2 4v-6h3z"/><path fill="#043812" d="m289 202-1 3c-2.066.73-2.066.73-4.562 1.188l-2.504.48L279 207c4.839-5 4.839-5 10-5"/><path fill="#31de83" d="m67 122 3 1-1.023 1.426-1.352 1.886-1.336 1.864A215 215 0 0 0 63 133v-6l2-1v-3z"/><path fill="#2bea7f" d="M114 72h7l-3 8h-1v-6h-3z"/><path fill="#19fa87" d="M284 292h2l-2 10h-1q-.04-2.22-.062-4.437l-.036-2.497C283 293 283 293 284 292"/><path fill="#033a18" d="m284 286 3 1-6 9c.75-6.625.75-6.625 3-10"/><path fill="#051509" d="m285 282 5 1c-2.052 2.248-3.007 3.002-6 4l-2 2c.613-2.962 1.254-4.38 3-7"/><path fill="#033d14" d="M332 207c2.063 2.25 2.063 2.25 4 5-.25 2.313-.25 2.313-1 4-2.097-2.36-2.97-3.546-3.187-6.75z"/><path fill="#043814" d="M274 264h1c.262 3.146.248 4.618-1.5 7.313L272 273l-2-2z"/><path fill="#33d278" d="m116 108 2 1-4 7h-1v-5h2z"/><path fill="#35e586" d="M331 205c4 2 4 2 6 5l-1 4z"/><path fill="#24ed82" d="M124 195v5l-2 1v-2l-3-1c2.75-3 2.75-3 5-3"/><path fill="#081b0d" d="m126 128 6 1-1 2-3 1-2 2c-1.125-3.75-1.125-3.75 0-6"/><path fill="#043c17" d="m268 119 4 1-5 5c0-3 0-3 1-6"/></svg>