<svg xmlns="http://www.w3.org/2000/svg" xml:space="preserve" viewBox="0 0 69.38 122.88"><path d="M21.34.41 65.26 0c.81-.04 1.64.18 2.37.66a3.946 3.946 0 0 1 1.08 5.48L45.77 40.38h19.45v.01a3.95 3.95 0 0 1 3.05 6.46L7 121.44a3.95 3.95 0 0 1-4.51 1.16 3.94 3.94 0 0 1-2.21-5.13L21.32 64.5l-15.77-.15c-.45.03-.9-.01-1.36-.14-2.1-.6-3.32-2.79-2.72-4.89l16.1-56.04h.01A3.94 3.94 0 0 1 21.34.41" style="fill:#383838"/><path d="m65.43 3.95-44.06.41L5.27 60.4l21.84.21-23.16 58.32 61.27-74.59H38.35z" style="fill-rule:evenodd;clip-rule:evenodd;fill:#fcdb33"/><path d="m33.9 4.52-12.24.23L6.23 60.09l21.01.48-23.29 58.36 31.26-63.9-18.63-3.18z" style="fill-rule:evenodd;clip-rule:evenodd;fill:#ff0"/></svg>